<svg width="123" height="124" viewBox="0 0 123 124" fill="none" xmlns="http://www.w3.org/2000/svg">
<g clip-path="url(#clip0_4151_14108)">
<path d="M46.1933 4.49575C46.336 3.45078 44.8615 2.59301 43.7535 2.5036C43.2247 2.46169 42.6763 2.54271 42.1755 2.36669C41.0899 1.98949 40.6562 0.589671 39.5986 0.142623C38.8068 -0.189869 37.8975 0.1063 37.128 0.491879C36.3614 0.877458 35.6032 1.36362 34.7442 1.41671C33.9999 1.46421 33.1885 1.1876 32.5366 1.55082C32.0498 1.82185 31.7952 2.38066 31.3475 2.71036C30.9082 3.03447 30.3374 3.10152 29.7946 3.13226C29.2518 3.16299 28.6867 3.16858 28.1914 3.3949C27.6962 3.62122 27.2877 4.1437 27.3884 4.67737L46.1905 4.49296L46.1933 4.49575Z" fill="#F5F5F5"/>
<path d="M120.481 66.1603C120.721 64.4252 118.268 62.9974 116.424 62.8493C115.545 62.7795 114.633 62.9136 113.799 62.623C111.995 61.9943 111.276 59.6669 109.516 58.9265C108.201 58.3732 106.684 58.865 105.408 59.5076C104.132 60.1503 102.871 60.9549 101.446 61.0472C100.207 61.1254 98.8611 60.6672 97.7755 61.2707C96.9669 61.7205 96.5445 62.6509 95.7974 63.2014C95.0672 63.7378 94.1186 63.8524 93.2121 63.8999C92.3084 63.9502 91.3711 63.9586 90.5485 64.3357C89.7259 64.7129 89.0432 65.5819 89.2139 66.4704L120.478 66.1631L120.481 66.1603Z" fill="#EBEBEB"/>
<path d="M27.1951 23.8141C27.377 22.4869 25.5024 21.3944 24.0922 21.2798C23.4207 21.2268 22.7212 21.3273 22.0833 21.1066C20.7039 20.626 20.1527 18.8462 18.8041 18.279C17.7968 17.8543 16.6385 18.2315 15.662 18.7233C14.6855 19.215 13.7203 19.8325 12.6319 19.8996C11.6834 19.9611 10.6537 19.609 9.82273 20.0728C9.20438 20.4165 8.87982 21.129 8.31184 21.5481C7.75505 21.9588 7.02759 22.0454 6.3337 22.0845C5.64261 22.1209 4.92634 22.1292 4.29681 22.417C3.66727 22.7048 3.14686 23.3698 3.27556 24.0488L27.1923 23.8141H27.1951Z" fill="#F5F5F5"/>
<path d="M101.473 96.1406L95.25 123.128L97.8801 123.123L104.119 96.3949L101.473 96.1406Z" fill="#E0E0E0"/>
<path d="M112.83 96.1406L119.078 123.128H121.576L115.533 96.1406H112.83Z" fill="#E0E0E0"/>
<path d="M97.2734 75.8696L100.818 94.4501H104.845L101.059 75.8696H97.2734Z" fill="#E0E0E0"/>
<path d="M35.5411 96.1406L30.4629 123.128H33.0482L38.3503 96.1406H35.5411Z" fill="#E0E0E0"/>
<path d="M46.2168 96.1406L52.0225 122.98H54.577L48.97 96.1406H46.2168Z" fill="#E0E0E0"/>
<path d="M31.3398 75.8696L34.8848 94.4501H38.9111L35.1254 75.8696H31.3398Z" fill="#E0E0E0"/>
<path d="M23.3652 74.1792L24.0899 77.5572H104.964L104.018 74.1792H23.3652Z" fill="#EBEBEB"/>
<path d="M24.9102 80.7397L25.7635 84.1178H106.092L105.362 80.7397H24.9102Z" fill="#EBEBEB"/>
<path d="M26.5039 87.5317L27.3013 90.9097H107.378L106.623 87.5317H26.5039Z" fill="#EBEBEB"/>
<path d="M118.982 94.4502H32.6289V97.8282H118.982V94.4502Z" fill="#EBEBEB"/>
<path d="M83.9899 52.6123C82.619 52.6123 81.3907 51.9054 80.6996 50.7207C80.0085 49.5332 80.0029 48.1111 80.6884 46.9208L91.5975 27.9185C92.283 26.7254 93.5113 26.0129 94.8879 26.0073H94.8991C96.2701 26.0073 97.4984 26.7142 98.1895 27.8989L109.213 46.8342C109.904 48.0217 109.91 49.4438 109.225 50.6341C108.539 51.8272 107.311 52.5396 105.934 52.5452L84.0011 52.6123H83.9899ZM94.8991 27.1445H94.8907C93.9254 27.1473 93.0636 27.6474 92.5824 28.4856L81.6732 47.488C81.1948 48.3234 81.1976 49.3209 81.6816 50.1535C82.1657 50.9833 83.0274 51.4779 83.9899 51.4779H83.9983L105.931 51.4108C106.897 51.408 107.758 50.9079 108.24 50.0697C108.718 49.2343 108.715 48.2368 108.231 47.4042L97.2074 28.4689C96.7233 27.639 95.8616 27.1445 94.8991 27.1445Z" fill="#EBEBEB"/>
<path d="M92.7582 35.3672L93.2674 42.453C93.3094 43.0313 93.7766 43.4896 94.3586 43.5203C94.9713 43.551 95.5001 43.0984 95.5645 42.4865L96.2919 35.3533C96.3479 34.814 95.917 34.3474 95.3714 34.3586L93.6395 34.3977C93.1219 34.4089 92.7218 34.8503 92.7582 35.3645V35.3672Z" fill="#EBEBEB"/>
<path d="M96.2757 47.4906C95.9819 48.4015 95.0054 48.8988 94.0933 48.6055C93.1812 48.3121 92.6831 47.337 92.9769 46.4261C93.2707 45.5152 94.2472 45.0179 95.1593 45.3113C96.0714 45.6046 96.5695 46.5798 96.2757 47.4906Z" fill="#EBEBEB"/>
<path d="M123.001 123.095C123.001 123.134 95.4636 123.167 61.5022 123.167C27.5409 123.167 -0.00195312 123.134 -0.00195312 123.095C-0.00195312 123.056 27.5297 123.022 61.5022 123.022C95.4748 123.022 123.001 123.056 123.001 123.095Z" fill="#263238"/>
<path d="M80.39 93.1201L52.142 93.1033C48.7454 93.1033 45.9922 90.2115 45.9922 86.6463L46.0062 12.3301C46.0062 8.7621 48.7649 5.87305 52.1616 5.87305L80.4096 5.88981C83.8063 5.88981 86.5594 8.78445 86.5594 12.3497L86.5454 86.6686C86.5454 90.2366 83.7867 93.1257 80.39 93.1257V93.1201Z" fill="#263238"/>
<path d="M80.3823 8.51606H74.9067C74.1736 8.51326 73.5777 9.16428 73.5777 9.97176V11.0139C73.5777 11.8186 72.9817 12.4724 72.2487 12.4724L61.5745 12.4668C60.8415 12.4668 60.2455 11.813 60.2455 11.0084V9.96617C60.2455 9.16148 59.6496 8.50768 58.9165 8.50768H56.9915L52.1987 8.50488C49.8176 8.50488 47.887 10.5278 47.887 13.0257L47.873 85.5648C47.873 88.0627 49.8008 90.0856 52.1791 90.0884L80.3711 90.1052C82.7521 90.1052 84.6827 88.0823 84.6827 85.5844L84.6967 13.0452C84.6967 10.5473 82.7689 8.52444 80.3906 8.52165L80.3823 8.51606Z" fill="white"/>
<path d="M55.5698 83.2542V85.0312C55.5698 85.1849 55.3992 85.2799 55.2705 85.1961L53.8715 84.3075C53.7512 84.2321 53.7512 84.0533 53.8715 83.9778L55.2705 83.0893C55.3992 83.0055 55.5698 83.1005 55.5698 83.2542Z" fill="#E0E0E0"/>
<path d="M67.0584 84.126C67.0584 84.805 66.51 85.3526 65.8329 85.3526C65.1558 85.3526 64.6074 84.8022 64.6074 84.126C64.6074 83.4498 65.1558 82.8994 65.8329 82.8994C66.51 82.8994 67.0584 83.4498 67.0584 84.126Z" fill="#E0E0E0"/>
<path d="M76.3806 83.0586H77.5949C77.8831 83.0586 78.1182 83.2933 78.1182 83.5811V84.7993C78.1182 85.0871 77.8831 85.3218 77.5949 85.3218H76.3806C76.0924 85.3218 75.8574 85.0871 75.8574 84.7993V83.5811C75.8574 83.2933 76.0924 83.0586 76.3806 83.0586Z" fill="#E0E0E0"/>
<path d="M79.9113 43.8269C81.716 36.366 77.1224 28.8568 69.6512 27.0546C62.18 25.2524 54.6603 29.8396 52.8556 37.3005C51.0509 44.7613 55.6445 52.2706 63.1157 54.0728C70.587 55.875 78.1066 51.2877 79.9113 43.8269Z" fill="#F5F5F5"/>
<path d="M67.005 46.6857C67.0022 47.3199 66.4846 47.8313 65.8494 47.8285C65.2143 47.8257 64.7023 47.3088 64.7051 46.6745C64.7079 46.0403 65.2255 45.529 65.8606 45.5317C66.4958 45.5345 67.0078 46.0514 67.005 46.6857Z" fill="#455A64"/>
<path d="M63.5557 45.2106C64.8176 43.8862 66.8713 43.8471 68.1667 45.1491C68.7543 45.7387 69.672 44.8306 69.0845 44.2411C67.3078 42.4529 64.3895 42.4641 62.6436 44.2942C62.07 44.8949 62.9794 45.8141 63.5529 45.2106H63.5557Z" fill="#455A64"/>
<path d="M59.65 39.8628C61.3987 38.354 63.4859 37.4041 65.825 37.3985C68.1417 37.3929 70.4276 38.2143 72.1232 39.8069C72.7303 40.3741 73.6508 39.4689 73.0409 38.8989C71.0963 37.0771 68.4914 36.102 65.8306 36.1104C63.1418 36.116 60.7496 37.2141 58.7406 38.9492C58.1083 39.494 59.0232 40.4077 59.65 39.8656V39.8628Z" fill="#455A64"/>
<path d="M61.1911 42.8272C62.3635 41.5615 64.0059 40.768 65.7434 40.7289C67.5257 40.687 69.2492 41.4218 70.4887 42.6931C71.0707 43.2911 71.9884 42.3802 71.4064 41.7851C69.9403 40.2791 67.8586 39.3878 65.749 39.4381C63.6841 39.4856 61.6808 40.3964 60.2818 41.9108C59.7166 42.5199 60.626 43.4391 61.1911 42.8272Z" fill="#455A64"/>
<path d="M76.7173 37.437C77.0567 35.5209 75.7763 33.6928 73.8575 33.3539C71.9388 33.015 70.1082 34.2936 69.7688 36.2098C69.4294 38.1259 70.7098 39.9539 72.6286 40.2928C74.5474 40.6317 76.378 39.3531 76.7173 37.437Z" fill="#FF725E"/>
<path d="M74.6998 35.8363L74.1992 35.3364L71.9576 37.5749L72.4582 38.0747L74.6998 35.8363Z" fill="white"/>
<path d="M72.4556 35.339L71.9551 35.8389L74.1966 38.0773L74.6972 37.5775L72.4556 35.339Z" fill="white"/>
<path d="M65.4455 16.2751C65.6218 16.1689 65.8093 16.0879 66.0023 16.032L66.117 15.4816L67.0488 15.4648L67.1831 16.0125C67.3789 16.06 67.5692 16.1354 67.7482 16.236L68.2183 15.9287L68.8898 16.5769L68.5988 17.0575C68.7051 17.2335 68.7863 17.4207 68.8422 17.6135L69.3934 17.728L69.4102 18.6584L68.8618 18.7926C68.8143 18.9881 68.7387 19.1781 68.638 19.357L68.9458 19.8264L68.2994 20.4969L67.8182 20.2063C67.6419 20.3125 67.4545 20.3936 67.2614 20.4494L67.1467 20.9999L66.215 21.0166L66.0807 20.469C65.8848 20.4215 65.6946 20.3461 65.5155 20.2455L65.0454 20.5528L64.3739 19.9046L64.6649 19.424C64.5586 19.248 64.4775 19.0608 64.4215 18.868L63.8703 18.7534L63.8535 17.823L64.4019 17.6889C64.4495 17.4933 64.525 17.3033 64.6257 17.1245L64.318 16.6551L64.9671 15.9845L65.4483 16.2751H65.4455ZM65.9436 17.5157C65.5603 17.9124 65.5714 18.5439 65.9688 18.9295C66.3661 19.3123 66.9984 19.3011 67.3845 18.9043C67.7678 18.5076 67.7566 17.8761 67.3593 17.4905C66.962 17.1077 66.3297 17.1189 65.9436 17.5157Z" fill="#E0E0E0"/>
<path d="M53.6174 18.3626C53.3236 18.3626 52.9515 18.357 52.5765 18.3486C52.1317 18.3402 51.6868 18.3318 51.3762 18.3346C51.3007 18.3346 51.2363 18.2732 51.2363 18.1977C51.2363 18.1195 51.2979 18.058 51.3734 18.0552C51.684 18.0524 52.1345 18.0608 52.5821 18.0692C53.027 18.0776 53.4719 18.086 53.7825 18.0832C53.858 18.0832 53.9223 18.1446 53.9223 18.2201C53.9223 18.2983 53.8608 18.3598 53.7852 18.3626C53.7321 18.3626 53.6761 18.3626 53.6174 18.3626Z" fill="#263238"/>
<path d="M52.2266 19.2959C52.1874 19.2959 52.1511 19.2791 52.1231 19.2484L51.2697 18.29C51.2221 18.2369 51.2221 18.1531 51.2725 18.1L52.1035 17.2283C52.1567 17.1724 52.2462 17.1696 52.3021 17.2227C52.3581 17.2758 52.3609 17.3652 52.3077 17.4211L51.5663 18.2006L52.3329 19.064C52.3833 19.1227 52.3777 19.2093 52.3217 19.2624C52.2937 19.2847 52.263 19.2987 52.2294 19.2987L52.2266 19.2959Z" fill="#263238"/>
<path d="M81.0645 17.5468C81.3041 17.5468 81.4982 17.3529 81.4982 17.1137C81.4982 16.8746 81.3041 16.6807 81.0645 16.6807C80.825 16.6807 80.6309 16.8746 80.6309 17.1137C80.6309 17.3529 80.825 17.5468 81.0645 17.5468Z" fill="#263238"/>
<path d="M81.5002 18.48C81.5002 18.7202 81.3043 18.913 81.0665 18.913C80.8287 18.913 80.6328 18.7174 80.6328 18.48C80.6328 18.2425 80.8287 18.0469 81.0665 18.0469C81.3043 18.0469 81.5002 18.2425 81.5002 18.48Z" fill="#263238"/>
<path d="M81.0645 20.2822C81.3041 20.2822 81.4982 20.0883 81.4982 19.8491C81.4982 19.6099 81.3041 19.416 81.0645 19.416C80.825 19.416 80.6309 19.6099 80.6309 19.8491C80.6309 20.0883 80.825 20.2822 81.0645 20.2822Z" fill="#263238"/>
<path d="M56.9538 59.6781C56.9538 59.7172 56.0641 59.7508 54.9701 59.7508C53.8761 59.7508 52.9863 59.7172 52.9863 59.6781C52.9863 59.639 53.8761 59.6055 54.9701 59.6055C56.0641 59.6055 56.9538 59.639 56.9538 59.6781Z" fill="#263238"/>
<path d="M64.0807 64.3163C64.0807 64.3554 61.6409 64.3889 58.6331 64.3889C55.6253 64.3889 53.1855 64.3554 53.1855 64.3163C53.1855 64.2772 55.6253 64.2437 58.6331 64.2437C61.6409 64.2437 64.0807 64.2772 64.0807 64.3163Z" fill="#263238"/>
<path d="M64.0807 68.9237C64.0807 68.9628 61.6409 68.9964 58.6331 68.9964C55.6253 68.9964 53.1855 68.9628 53.1855 68.9237C53.1855 68.8846 55.6253 68.8511 58.6331 68.8511C61.6409 68.8511 64.0807 68.8846 64.0807 68.9237Z" fill="#263238"/>
<path d="M78.4852 62.5781H74.5009C73.5382 62.5781 72.7578 63.3568 72.7578 64.3174C72.7578 65.278 73.5382 66.0567 74.5009 66.0567H78.4852C79.4479 66.0567 80.2283 65.278 80.2283 64.3174C80.2283 63.3568 79.4479 62.5781 78.4852 62.5781Z" fill="#EBEBEB"/>
<path d="M75.9386 64.3159C75.9386 65.1206 75.2839 65.7744 74.4781 65.7744C73.6723 65.7744 73.0176 65.1206 73.0176 64.3159C73.0176 63.5112 73.6723 62.8574 74.4781 62.8574C75.2839 62.8574 75.9386 63.5112 75.9386 64.3159Z" fill="#E0E0E0"/>
<path d="M78.488 70.6645H74.5009C73.5384 70.6645 72.7578 69.885 72.7578 68.9238C72.7578 67.9626 73.5384 67.1831 74.5009 67.1831H78.488C79.4505 67.1831 80.2311 67.9626 80.2311 68.9238C80.2311 69.885 79.4505 70.6645 78.488 70.6645Z" fill="#EBEBEB"/>
<path d="M74.4781 70.3823C75.2847 70.3823 75.9386 69.7293 75.9386 68.9238C75.9386 68.1183 75.2847 67.4653 74.4781 67.4653C73.6715 67.4653 73.0176 68.1183 73.0176 68.9238C73.0176 69.7293 73.6715 70.3823 74.4781 70.3823Z" fill="#E0E0E0"/>
<path d="M64.0807 73.5643C64.0807 73.6035 61.6409 73.637 58.6331 73.637C55.6253 73.637 53.1855 73.6035 53.1855 73.5643C53.1855 73.5252 55.6253 73.4917 58.6331 73.4917C61.6409 73.4917 64.0807 73.5252 64.0807 73.5643Z" fill="#263238"/>
<path d="M78.488 75.8193H74.5009C73.5384 75.8193 72.7578 75.0397 72.7578 74.0786C72.7578 73.1174 73.5384 72.3379 74.5009 72.3379H78.488C79.4505 72.3379 80.2311 73.1174 80.2311 74.0786C80.2311 75.0397 79.4505 75.8193 78.488 75.8193Z" fill="#EBEBEB"/>
<path d="M74.4781 75.5371C75.2847 75.5371 75.9386 74.8841 75.9386 74.0786C75.9386 73.2731 75.2847 72.6201 74.4781 72.6201C73.6715 72.6201 73.0176 73.2731 73.0176 74.0786C73.0176 74.8841 73.6715 75.5371 74.4781 75.5371Z" fill="#E0E0E0"/>
<path d="M111.773 13.4027C112.174 10.9196 110.484 8.5817 107.997 8.18086C105.51 7.78001 103.169 9.46803 102.768 11.9512C102.366 14.4343 104.057 16.7722 106.543 17.1731C109.03 17.5739 111.371 15.8859 111.773 13.4027Z" fill="#FF725E"/>
<path d="M106.62 22.8582C106.595 22.8582 106.572 22.0172 106.572 20.9806C106.572 19.944 106.595 19.103 106.62 19.103C106.645 19.103 106.667 19.944 106.667 20.9806C106.667 22.0172 106.645 22.8582 106.62 22.8582Z" fill="#FF725E"/>
<path d="M103.993 18.0441C104.015 18.0581 103.587 18.8432 103.036 19.796C102.485 20.7516 102.017 21.5143 101.995 21.5004C101.973 21.4864 102.401 20.7041 102.952 19.7485C103.503 18.7929 103.97 18.0302 103.993 18.0441Z" fill="#FF725E"/>
<path d="M101.297 16.365C101.313 16.3846 100.835 16.7925 100.231 17.2703C99.6263 17.7508 99.1227 18.1225 99.1059 18.1029C99.0891 18.0833 99.5648 17.6754 100.172 17.1976C100.776 16.717 101.28 16.3454 101.297 16.365Z" fill="#FF725E"/>
<path d="M111.171 21.0085C111.171 21.0085 111.118 20.8324 111.05 20.5474C110.986 20.2597 110.891 19.8657 110.776 19.4326C110.659 18.9995 110.541 18.6112 110.454 18.3318C110.368 18.0496 110.315 17.8763 110.326 17.8707C110.337 17.8652 110.415 18.0328 110.519 18.3094C110.622 18.586 110.751 18.9744 110.868 19.4075C110.986 19.8433 111.07 20.2429 111.118 20.5335C111.165 20.8241 111.185 21.0057 111.171 21.0085Z" fill="#FF725E"/>
<path d="M115.795 17.7313C115.779 17.7509 115.174 17.2536 114.447 16.6193C113.719 15.9851 113.146 15.4542 113.162 15.4346C113.179 15.4151 113.784 15.9124 114.511 16.5467C115.239 17.1809 115.812 17.7118 115.795 17.7313Z" fill="#FF725E"/>
<path d="M117.565 13.2275C117.565 13.2275 117.352 13.2051 117.014 13.1492C116.675 13.0934 116.208 13.0207 115.69 12.962C115.173 12.9034 114.7 12.867 114.359 12.8447C114.017 12.8223 113.805 12.8112 113.805 12.7972C113.805 12.786 114.017 12.7721 114.361 12.7776C114.706 12.7832 115.181 12.8056 115.702 12.867C116.222 12.9257 116.692 13.0095 117.028 13.085C117.364 13.1576 117.568 13.2191 117.565 13.2303V13.2275Z" fill="#FF725E"/>
<path d="M117.571 8.79885C117.576 8.824 116.589 9.08664 115.366 9.3856C114.14 9.68456 113.144 9.9025 113.139 9.87735C113.133 9.85221 114.121 9.58957 115.343 9.2906C116.566 8.99164 117.565 8.7737 117.571 8.79885Z" fill="#FF725E"/>
<path d="M112.418 3.63818C112.44 3.65215 111.968 4.40375 111.363 5.31741C110.759 6.23106 110.25 6.96031 110.227 6.94634C110.205 6.93237 110.678 6.18077 111.282 5.26712C111.887 4.35346 112.396 3.62421 112.418 3.64098V3.63818Z" fill="#FF725E"/>
<path d="M107.306 2.55957C107.306 2.55957 107.317 2.79986 107.311 3.18544C107.306 3.57102 107.297 4.10468 107.3 4.69143C107.3 5.28098 107.309 5.81185 107.317 6.19743C107.323 6.583 107.325 6.8205 107.311 6.82329C107.297 6.82329 107.272 6.5858 107.25 6.20022C107.225 5.81464 107.205 5.28098 107.205 4.69143C107.205 4.10189 107.222 3.56822 107.247 3.18264C107.269 2.79706 107.295 2.55957 107.309 2.55957H107.306Z" fill="#FF725E"/>
<path d="M103.434 7.37652C103.412 7.39049 102.93 6.64727 102.362 5.71406C101.792 4.78364 101.35 4.01528 101.372 4.0041C101.394 3.99013 101.876 4.73335 102.444 5.66656C103.014 6.59698 103.456 7.36255 103.434 7.37652Z" fill="#FF725E"/>
<path d="M101.119 9.34056C101.119 9.34056 100.931 9.32659 100.635 9.26512C100.338 9.20365 99.9326 9.10307 99.4877 8.97175C99.0429 8.84043 98.6484 8.70352 98.3658 8.59455C98.0832 8.48558 97.9125 8.40735 97.9181 8.39617C97.9237 8.3822 98.1028 8.43808 98.3882 8.53029C98.6763 8.62249 99.0736 8.74822 99.5157 8.87954C99.9578 9.01087 100.361 9.11983 100.652 9.19807C100.943 9.2763 101.125 9.32659 101.122 9.34056H101.119Z" fill="#FF725E"/>
<path d="M100.11 12.8387C100.11 12.8639 99.4605 12.9505 98.6547 13.026C97.8489 13.1042 97.1942 13.1461 97.1914 13.1182C97.1914 13.093 97.8405 13.0064 98.6463 12.931C99.4521 12.8527 100.107 12.8108 100.11 12.8387Z" fill="#FF725E"/>
<path d="M96.998 94.0034C98.3578 103.676 99.7176 113.352 101.08 123.025L102.143 123.059C101.466 113.201 100.744 103.148 97.0008 94.0034H96.998Z" fill="#455A64"/>
<path d="M108.333 92.6454C105.482 95.7635 104.335 100.052 103.613 104.213C102.589 110.114 102.497 117.079 102.802 123.059L104.29 123.092C103.686 112.763 105.085 102.469 108.33 92.6426L108.333 92.6454Z" fill="#455A64"/>
<path d="M97.7477 111.173C97.4203 109.734 97.0454 108.273 96.2228 107.049C95.112 105.395 93.3046 104.347 91.4831 103.534C89.6644 102.721 87.7479 102.067 86.1055 100.941C87.9409 103.945 92.1042 104.744 94.2251 107.554C95.2799 108.951 95.7192 110.706 96.1305 112.408C97.0314 116.118 97.5882 119.329 98.4891 123.039H99.695C99.2977 119.007 98.6458 115.126 97.7449 111.176L97.7477 111.173Z" fill="#455A64"/>
<path d="M105.381 123.059C105.381 123.059 106.402 111.533 107.16 109.415C107.919 107.3 115.081 101.452 115.014 101.726C114.944 102 109.642 108.398 108.884 109.706C108.126 111.014 106.816 123.056 106.816 123.056H105.381V123.059Z" fill="#455A64"/>
<path d="M71.5204 111.005C72.094 111.209 72.536 111.698 72.7795 112.254C73.0229 112.81 73.0816 113.433 73.0509 114.039C72.9949 115.213 72.4073 116.434 71.7554 117.409C70.7174 116.616 70.3928 115.138 70.2781 114.378C70.0934 113.176 70.4908 110.891 71.5232 111.005" fill="#FF725E"/>
<path d="M73.0224 119.261C72.821 118.613 73.0504 117.873 73.526 117.389C74.0017 116.906 74.6984 116.669 75.3783 116.677C75.6916 116.68 76.0358 116.75 76.2316 116.995C76.4135 117.225 76.4163 117.563 76.2988 117.831C76.1813 118.099 75.9575 118.309 75.7196 118.479C74.9026 119.069 74.0045 119.488 73.0224 119.261Z" fill="#FF725E"/>
<path d="M71.9969 122.916C71.9969 122.916 71.9969 122.829 72.0165 122.676C72.0361 122.505 72.0613 122.285 72.0921 122.022C72.1648 121.474 72.2544 120.689 72.6265 119.912C72.993 119.136 73.5386 118.546 74.0087 118.239C74.2437 118.082 74.4507 117.984 74.5962 117.931C74.669 117.901 74.7277 117.889 74.7669 117.876C74.8061 117.864 74.8284 117.859 74.8284 117.862C74.8368 117.881 74.4927 117.965 74.0422 118.286C73.589 118.599 73.063 119.183 72.702 119.946C72.3383 120.709 72.2376 121.483 72.1508 122.027C72.1089 122.301 72.0753 122.525 72.0473 122.679C72.0193 122.832 71.9997 122.916 71.9941 122.916H71.9969Z" fill="#263238"/>
<path d="M71.3715 112.774C71.3715 112.774 71.3799 112.81 71.3911 112.877C71.3995 112.956 71.4135 113.053 71.4275 113.176C71.4583 113.436 71.4974 113.813 71.545 114.28C71.6373 115.21 71.7437 116.501 71.8304 117.926C71.9171 119.354 71.9647 120.645 71.9871 121.581C71.9983 122.047 72.0039 122.427 72.0039 122.69C72.0039 122.813 72.0039 122.914 72.0039 122.992C72.0039 123.062 72.0011 123.098 71.9983 123.098C71.9955 123.098 71.9927 123.062 71.9871 122.992C71.9843 122.914 71.9787 122.813 71.9731 122.69C71.9619 122.419 71.9479 122.042 71.9283 121.584C71.8891 120.648 71.8332 119.357 71.7464 117.932C71.6597 116.507 71.5618 115.219 71.4862 114.286C71.4499 113.827 71.4191 113.453 71.3967 113.182C71.3883 113.059 71.3799 112.958 71.3743 112.88C71.3715 112.81 71.3687 112.774 71.3743 112.774H71.3715Z" fill="#263238"/>
<path d="M71.3694 120.08C71.0532 118.686 70.0208 117.471 68.689 116.94C68.3504 116.803 67.9139 116.73 67.6621 116.99C67.4075 117.253 67.497 117.686 67.6509 118.018C68.2944 119.396 69.8361 120.295 71.3526 120.178" fill="#FF725E"/>
<path d="M68.9219 118.035C68.9219 118.035 69.0002 118.058 69.1373 118.113C69.2045 118.141 69.2884 118.175 69.3807 118.222C69.4731 118.273 69.5822 118.317 69.6941 118.39C69.806 118.46 69.9319 118.532 70.055 118.625C70.1837 118.711 70.3096 118.817 70.4412 118.932C70.6986 119.167 70.9616 119.446 71.1938 119.779C71.4204 120.111 71.5939 120.458 71.717 120.782C71.7758 120.947 71.8289 121.103 71.8625 121.254C71.9045 121.402 71.9269 121.544 71.9492 121.676C71.9744 121.804 71.9772 121.924 71.9884 122.028C71.9996 122.131 71.9996 122.221 71.9968 122.296C71.9968 122.444 71.9912 122.522 71.9856 122.522C71.966 122.522 71.98 122.198 71.8877 121.687C71.8625 121.558 71.8373 121.419 71.7926 121.273C71.7562 121.125 71.7002 120.972 71.6415 120.812C71.5128 120.494 71.3449 120.156 71.1211 119.829C70.8944 119.505 70.637 119.225 70.388 118.994C70.2593 118.879 70.1362 118.773 70.0131 118.683C69.8928 118.588 69.7724 118.513 69.6633 118.443C69.2213 118.169 68.9163 118.052 68.9247 118.035H68.9219Z" fill="#263238"/>
<path d="M22.3491 107.711L14.4785 114.157L22.4582 123.975C23.3508 123.156 21.1068 116.549 21.1068 116.549L26.3194 112.626L22.3463 107.711H22.3491Z" fill="#455A64"/>
<g opacity="0.6">
<path d="M19.0678 113.168C18.8608 113.019 18.5418 113.061 18.3851 113.263C18.2285 113.464 18.2676 113.788 18.4719 113.939C18.6761 114.09 19.0622 114.051 19.1965 113.835C19.3308 113.62 19.2609 113.24 19.0287 113.14" fill="white"/>
</g>
<g opacity="0.6">
<path d="M14.5098 114.132L15.3016 113.478L22.6154 123.213C22.6154 123.213 22.7777 123.805 22.4279 124.003L14.5098 114.132Z" fill="white"/>
</g>
<path d="M21.2881 116.668C21.2377 116.705 21.0222 116.484 20.6753 116.372C20.3312 116.252 20.0262 116.3 20.0094 116.241C19.9814 116.188 20.3284 116.029 20.7453 116.168C21.1621 116.305 21.3412 116.643 21.2881 116.668Z" fill="#263238"/>
<path d="M21.7002 118.043C21.6639 118.091 21.412 117.951 21.0763 117.951C20.7405 117.943 20.4887 118.08 20.4523 118.029C20.4076 117.99 20.6622 117.73 21.0791 117.736C21.496 117.736 21.745 118.004 21.7002 118.04V118.043Z" fill="#263238"/>
<path d="M20.9382 119.63C20.8935 119.594 21.0781 119.334 21.4419 119.245C21.8056 119.152 22.091 119.295 22.0686 119.348C22.0518 119.407 21.7916 119.376 21.495 119.454C21.1957 119.527 20.983 119.675 20.9382 119.633V119.63Z" fill="#263238"/>
<path d="M22.3763 115.643C22.3175 115.66 22.2028 115.386 21.965 115.129C21.7327 114.869 21.4697 114.732 21.4893 114.674C21.5005 114.618 21.8474 114.679 22.1244 114.984C22.4042 115.288 22.435 115.635 22.3763 115.643Z" fill="#263238"/>
<path d="M23.3528 114.464C23.3333 114.481 23.1486 114.316 22.9555 113.97C22.8604 113.799 22.7653 113.581 22.6953 113.327C22.6618 113.201 22.6338 113.064 22.617 112.922C22.6086 112.852 22.5946 112.776 22.6114 112.679C22.617 112.584 22.7205 112.452 22.8492 112.45C22.9667 112.438 23.0703 112.5 23.129 112.57C23.1906 112.64 23.2241 112.709 23.2521 112.774C23.3137 112.905 23.3612 113.036 23.3948 113.165C23.462 113.422 23.4788 113.662 23.4648 113.861C23.4396 114.26 23.3221 114.484 23.2997 114.475C23.2661 114.467 23.3277 114.235 23.3137 113.861C23.3053 113.673 23.2773 113.455 23.2046 113.221C23.1682 113.103 23.1206 112.986 23.0619 112.869C23.0059 112.743 22.9332 112.654 22.866 112.665C22.8408 112.67 22.8324 112.673 22.8184 112.721C22.8073 112.765 22.8156 112.83 22.8212 112.899C22.8352 113.034 22.8576 113.159 22.8828 113.279C22.936 113.52 23.0115 113.729 23.087 113.902C23.2381 114.246 23.3752 114.445 23.3473 114.464H23.3528Z" fill="#263238"/>
<path d="M23.2336 114.456C23.2112 114.445 23.3063 114.21 23.6029 113.942C23.7512 113.808 23.9499 113.674 24.1961 113.573C24.3192 113.523 24.4535 113.484 24.5962 113.456C24.7389 113.433 24.9263 113.4 25.0998 113.567C25.1838 113.662 25.1726 113.805 25.1306 113.883C25.0914 113.97 25.0383 114.023 24.9907 114.079C24.89 114.191 24.7753 114.28 24.6605 114.347C24.4255 114.487 24.1821 114.543 23.9806 114.548C23.5693 114.562 23.3511 114.408 23.3623 114.392C23.3735 114.355 23.6029 114.448 23.9667 114.397C24.1457 114.372 24.3584 114.308 24.557 114.177C24.6549 114.112 24.7501 114.034 24.834 113.936C24.9263 113.836 24.9795 113.729 24.9347 113.699C24.8956 113.648 24.7501 113.629 24.6326 113.657C24.5039 113.679 24.3808 113.71 24.266 113.752C24.0394 113.836 23.8463 113.945 23.6981 114.054C23.3987 114.274 23.2616 114.47 23.2308 114.45L23.2336 114.456Z" fill="#263238"/>
<path d="M18.7812 112.978L18.8764 123.142L31.5398 123.089C31.4615 121.882 24.8975 119.485 24.8975 119.485L25.1046 112.969L18.7812 112.978Z" fill="#455A64"/>
<g opacity="0.6">
<path d="M20.9842 118.951C20.7407 119.019 20.5701 119.295 20.6288 119.541C20.6876 119.787 20.9674 119.96 21.2108 119.899C21.457 119.834 21.6697 119.51 21.5829 119.27C21.499 119.03 21.1576 118.845 20.9338 118.965" fill="white"/>
</g>
<g opacity="0.6">
<path d="M18.8773 123.101L18.8633 122.075L31.0427 122.489C31.0427 122.489 31.6051 122.735 31.5407 123.131L18.8773 123.103V123.101Z" fill="white"/>
</g>
<path d="M25.1044 119.418C25.1044 119.479 24.7938 119.51 24.4888 119.708C24.181 119.901 24.0244 120.17 23.9684 120.144C23.9124 120.133 24.002 119.764 24.3741 119.527C24.7434 119.289 25.1184 119.359 25.1044 119.418Z" fill="#263238"/>
<path d="M26.4362 119.96C26.4502 120.019 26.1844 120.125 25.9746 120.388C25.7591 120.645 25.706 120.927 25.6444 120.924C25.5857 120.935 25.5409 120.572 25.8067 120.251C26.0697 119.927 26.4334 119.901 26.4362 119.96Z" fill="#263238"/>
<path d="M27.198 121.544C27.142 121.558 27.0553 121.248 27.212 120.91C27.3659 120.569 27.6568 120.435 27.6848 120.485C27.7212 120.536 27.5337 120.717 27.4078 120.999C27.2763 121.276 27.2595 121.536 27.198 121.544Z" fill="#263238"/>
<path d="M24.9883 117.926C24.9631 117.982 24.6777 117.898 24.328 117.926C23.9782 117.943 23.7068 118.063 23.6732 118.01C23.6369 117.965 23.9027 117.736 24.314 117.711C24.7253 117.683 25.0162 117.878 24.9855 117.929L24.9883 117.926Z" fill="#263238"/>
<path d="M24.679 116.429C24.679 116.454 24.4356 116.493 24.0439 116.429C23.8508 116.395 23.6214 116.334 23.3808 116.227C23.2604 116.174 23.1373 116.11 23.017 116.035C22.9583 115.998 22.8883 115.959 22.824 115.887C22.754 115.822 22.7148 115.657 22.7932 115.557C22.8575 115.459 22.9723 115.417 23.0646 115.414C23.1569 115.412 23.2325 115.428 23.3024 115.445C23.4423 115.479 23.5766 115.526 23.6969 115.579C23.9403 115.688 24.1362 115.825 24.2845 115.959C24.5783 116.23 24.6818 116.459 24.6594 116.473C24.6314 116.493 24.4887 116.3 24.1866 116.079C24.0383 115.968 23.8452 115.853 23.6186 115.764C23.5039 115.719 23.3835 115.68 23.2548 115.652C23.1205 115.618 23.0058 115.616 22.9723 115.677C22.9611 115.699 22.9583 115.708 22.9862 115.747C23.0142 115.783 23.0702 115.817 23.1261 115.856C23.2381 115.928 23.3528 115.99 23.4619 116.046C23.6829 116.155 23.8956 116.227 24.0774 116.278C24.4412 116.378 24.679 116.392 24.679 116.426V116.429Z" fill="#263238"/>
<path d="M24.5994 116.518C24.577 116.526 24.4539 116.305 24.4287 115.906C24.4175 115.708 24.4371 115.467 24.5126 115.213C24.5518 115.087 24.6022 114.956 24.6721 114.827C24.7449 114.702 24.8344 114.534 25.075 114.506C25.2009 114.501 25.3045 114.598 25.3408 114.682C25.3828 114.769 25.3912 114.841 25.408 114.914C25.4332 115.062 25.4304 115.207 25.408 115.342C25.3688 115.61 25.2597 115.836 25.1394 115.998C24.8932 116.328 24.6357 116.4 24.6301 116.381C24.6106 116.35 24.8232 116.23 25.0135 115.914C25.1058 115.758 25.1869 115.554 25.2121 115.319C25.2233 115.202 25.2205 115.079 25.1981 114.953C25.1785 114.819 25.1254 114.71 25.075 114.724C25.0135 114.724 24.9043 114.825 24.854 114.934C24.7896 115.048 24.7393 115.163 24.6973 115.277C24.619 115.506 24.5854 115.724 24.577 115.909C24.5602 116.28 24.6274 116.512 24.5938 116.521L24.5994 116.518Z" fill="#263238"/>
<path d="M19.8677 54.0957C19.8677 54.0957 18.0939 55.9929 17.2209 57.8118C16.3479 59.6307 15.7912 63.9699 15.7912 63.9699C15.7912 63.9699 13.3402 69.4211 13.7123 72.2095C14.0844 74.998 16.5802 94.073 16.5802 94.073C16.5802 94.073 16.4571 112.614 18.2254 115.922L18.6199 117.708L25.7602 116.442L25.7154 115.372L27.4026 79.0158L31.6974 54.2633L19.8677 54.0985V54.0957Z" fill="#263238"/>
<path d="M35.6232 59.502C35.6232 59.502 39.8928 82.9692 40.2678 87.043C40.6455 91.1167 26.1158 112.592 26.1158 112.592L19.4707 105.682L29.0061 87.9818L25.906 70.1445L30.2176 54.3833L34.7446 54.5426L35.6204 59.502H35.6232Z" fill="#263238"/>
<path d="M17.1211 110.15C17.1211 110.15 17.1239 110.329 17.1715 110.67C17.2162 111.011 17.3002 111.511 17.4177 112.156C17.6555 113.447 18.0388 115.319 18.5564 117.661L18.5676 117.708L18.618 117.7C20.6353 117.348 23.0583 116.923 25.7611 116.451L25.8143 116.442V116.386C26.0157 111.494 26.2536 105.643 26.5082 99.3735C26.7712 92.6259 27.0174 86.3672 27.216 81.2345V81.2401C27.7504 77.1161 28.1925 73.7046 28.5031 71.3184C28.6514 70.1338 28.7689 69.2033 28.85 68.5607C28.8864 68.2478 28.9172 68.0075 28.9368 67.837C28.9564 67.6722 28.9592 67.5884 28.9592 67.5884C28.9592 67.5884 28.9424 67.6722 28.9172 67.8343C28.892 68.0047 28.8584 68.245 28.8109 68.5551C28.7213 69.195 28.5926 70.1254 28.4275 71.3073C28.103 73.6906 27.6413 77.0993 27.0845 81.2206V81.2261C26.8747 86.3588 26.6229 92.6175 26.3487 99.3651C26.1025 105.638 25.8758 111.486 25.6828 116.381L25.7387 116.317C23.0387 116.8 20.6185 117.236 18.6012 117.599L18.66 117.638C18.1284 115.302 17.7282 113.433 17.4736 112.148C17.3477 111.505 17.2526 111.005 17.2022 110.667C17.1715 110.499 17.1575 110.368 17.1435 110.281C17.1323 110.195 17.1211 110.15 17.1211 110.15Z" fill="#455A64"/>
<path d="M8.83008 44.3836C8.83008 44.3836 13.2508 34.867 14.2944 34.3613C15.3381 33.8556 18.3375 33.6879 18.7432 34.2551L10.8194 45.6493L8.83008 44.3836Z" fill="#455A64"/>
<path d="M9.05937 43.0986C8.86351 42.9924 8.63408 42.9617 8.41864 43.0147H8.41305C7.04206 43.3584 2.01977 44.7024 1.46018 46.1245C0.811059 47.7758 4.78133 69.2341 5.29335 69.8153C5.80537 70.3965 13.7011 69.4185 13.9418 68.5049C14.1824 67.5884 11.3733 44.4593 11.3733 44.4593L9.05937 43.093V43.0986Z" fill="#455A64"/>
<path d="M2.82821 57.7173C2.82821 57.7173 2.38054 57.7424 1.93567 58.7315C1.4908 59.7206 2.27422 67.7256 2.86459 68.5442C3.45495 69.3629 5.17568 69.5361 5.17568 69.5361L2.82821 57.7173Z" fill="#455A64"/>
<path d="M11.6281 68.9437C11.6281 68.9437 11.6113 68.927 11.5889 68.8907C11.5609 68.846 11.5273 68.7929 11.4854 68.7258C11.393 68.5805 11.2699 68.3598 11.1244 68.0664C10.8335 67.4825 10.4865 66.5967 10.2235 65.4596C9.95491 64.3224 9.75905 62.9449 9.59677 61.4166C9.43449 59.8854 9.25263 58.2034 9.06517 56.4376C8.68465 52.9059 8.36568 49.7011 8.31532 47.3709C8.28734 46.2058 8.30972 45.2642 8.3461 44.6131C8.36289 44.289 8.38247 44.0348 8.39926 43.8643C8.40765 43.7861 8.41325 43.7218 8.41884 43.6716C8.42444 43.6268 8.42724 43.6045 8.43004 43.6045C8.43004 43.6045 8.43283 43.6268 8.43283 43.6716C8.43283 43.7246 8.43004 43.7889 8.42724 43.8671C8.42164 44.0515 8.41325 44.3002 8.40206 44.6159C8.38527 45.267 8.37688 46.2058 8.41884 47.3681C8.49719 49.6927 8.83014 52.8919 9.21066 56.4236C9.39532 58.1894 9.57159 59.8687 9.73108 61.4026C9.88496 62.9337 10.0696 64.3056 10.3242 65.44C10.5733 66.5744 10.9034 67.4573 11.1776 68.0469C11.3147 68.3402 11.4294 68.5665 11.5134 68.7146C11.5497 68.7845 11.5805 68.8404 11.6057 68.8851C11.6253 68.9242 11.6337 68.9437 11.6337 68.9465L11.6281 68.9437Z" fill="#263238"/>
<path d="M9.10734 56.2169C9.10734 56.2392 8.74921 56.2923 8.17283 56.3929C7.59366 56.4935 6.79905 56.6472 5.93169 56.8595C5.06433 57.0747 4.2865 57.3094 3.72971 57.491C3.17012 57.6726 2.82878 57.7927 2.82038 57.7704C2.81758 57.762 2.89872 57.7201 3.04981 57.653C3.2009 57.586 3.42194 57.4966 3.69614 57.3932C4.24733 57.1864 5.02236 56.935 5.89811 56.717C6.77107 56.5019 7.57687 56.365 8.15884 56.2895C8.44983 56.2532 8.68765 56.2281 8.85273 56.2169C9.01781 56.2057 9.10734 56.2057 9.11014 56.2169H9.10734Z" fill="#263238"/>
<path d="M2.72407 56.8286C2.72407 56.8286 2.74085 56.8733 2.75764 56.9599C2.77723 57.0633 2.79961 57.189 2.82479 57.3399C2.88355 57.6948 2.96189 58.167 3.05982 58.7425C3.25847 59.9244 3.54666 61.5589 3.90479 63.3527C4.26573 65.1465 4.63226 66.7643 4.90646 67.9322C5.04076 68.4994 5.14988 68.966 5.23381 69.3152C5.26739 69.4661 5.29537 69.589 5.31775 69.6924C5.33454 69.779 5.34293 69.8265 5.33734 69.8265C5.33174 69.8265 5.31495 69.7846 5.28977 69.7008C5.25899 69.6002 5.22262 69.4773 5.17785 69.3292C5.08273 69.0079 4.95682 68.5385 4.80573 67.9573C4.50635 66.795 4.12303 65.18 3.7593 63.3835C3.39837 61.5869 3.12697 59.9496 2.9535 58.7621C2.86676 58.167 2.80241 57.6864 2.76604 57.3539C2.74925 57.2002 2.73526 57.0745 2.72407 56.9683C2.71567 56.8789 2.71567 56.8342 2.71847 56.8342L2.72407 56.8286Z" fill="#263238"/>
<path d="M8.34495 47.1697C8.32537 47.1697 8.33656 46.9406 8.38972 46.5746C8.44008 46.2114 8.53521 45.7112 8.67791 45.1664C8.8206 44.6243 8.98848 44.141 9.12278 43.8001C9.25708 43.4592 9.3606 43.2553 9.37739 43.2609C9.41656 43.2776 9.1004 44.127 8.8178 45.2027C8.52962 46.2784 8.38692 47.1753 8.34215 47.1669L8.34495 47.1697Z" fill="#263238"/>
<path d="M36.0784 26.7922C36.0336 25.9847 35.9301 22.0535 35.8854 21.4584C35.821 20.6509 35.4881 19.849 34.8949 19.2958C34.3017 18.7453 33.3784 18.5078 32.6509 18.8627C32.1697 18.9828 31.792 19.3572 31.6577 19.835C30.0013 25.7165 30.2615 31.978 29.5312 38.0606C31.6941 38.4127 34.6039 38.2674 36.7891 38.1528C36.7891 33.2968 36.3778 32.0339 36.0784 26.7922Z" fill="#263238"/>
<path d="M35.1662 35.0847C35.1662 35.0847 35.155 35.0317 35.1494 34.9283C35.1438 34.8109 35.1382 34.6601 35.127 34.4784C35.113 34.0677 35.0962 33.5061 35.0766 32.8188C35.0459 31.3994 35.0067 29.4743 34.9619 27.3452C34.9451 26.2779 34.9311 25.2581 34.9144 24.3304C34.9088 23.8694 34.9032 23.428 34.8976 23.0144C34.8948 22.6037 34.8836 22.2209 34.8192 21.8829C34.7073 21.1927 34.3128 20.7373 33.9771 20.5529C33.6385 20.3629 33.4035 20.3992 33.4063 20.3797C33.4063 20.3797 33.4203 20.3741 33.4454 20.3741C33.4734 20.3741 33.5126 20.3685 33.563 20.3741C33.6665 20.3824 33.8232 20.4132 33.9994 20.5054C34.1757 20.5976 34.3744 20.7513 34.545 20.9804C34.7157 21.2067 34.8444 21.514 34.9144 21.8633C34.9871 22.2126 35.0039 22.6009 35.0123 23.0117C35.0207 23.4252 35.0319 23.8638 35.0403 24.3276C35.0571 25.2553 35.0766 26.2723 35.0962 27.3424C35.1242 29.4715 35.1494 31.3994 35.169 32.816C35.169 33.5033 35.1746 34.0649 35.1746 34.4756C35.1746 34.6601 35.1718 34.8081 35.169 34.9283C35.1662 35.0317 35.1634 35.0847 35.1578 35.0847H35.1662Z" fill="#455A64"/>
<path d="M33.2013 32.8554C33.2013 32.8554 33.1817 32.7297 33.1761 32.5006C33.1677 32.2714 33.1621 31.9418 33.1621 31.5338C33.1621 30.718 33.1789 29.592 33.2097 28.3458C33.2432 27.1164 33.274 26.0044 33.2992 25.1606C33.3132 24.775 33.3216 24.4509 33.33 24.1966C33.3384 23.9675 33.3496 23.8418 33.358 23.8418C33.3664 23.8418 33.3776 23.9675 33.3831 24.1966C33.3915 24.4258 33.3971 24.7555 33.3971 25.1634C33.3971 25.9792 33.3803 27.1052 33.3496 28.3514C33.316 29.5808 33.2852 30.6928 33.26 31.5366C33.246 31.9222 33.2377 32.2463 33.2293 32.5006C33.2209 32.7297 33.2097 32.8554 33.2013 32.8554Z" fill="#455A64"/>
<path d="M18.952 34.3613C18.6694 34.3613 13.3953 34.7385 12.1698 40.3797C10.9443 46.0237 10.5918 53.9309 10.5918 53.9309L16.3136 53.3581L18.9492 34.3613H18.952Z" fill="#FF725E"/>
<path d="M21.5454 33.1123L22.4771 31.3996L30.5771 31.1816L31.1255 32.6401L35.9072 34.3613L35.5323 55.5234L39.0717 75.0538C39.0717 75.0538 39.0353 77.8647 29.5951 78.7671L28.848 68.5577L24.1335 68.4459L24.2622 78.4179C24.2622 78.4179 15.9412 78.2838 13.3027 76.4034C13.3027 76.4034 12.5025 66.9008 14.7744 60.061C16.7637 54.0705 17.5388 52.5226 17.5388 52.5226L17.7094 34.568L21.5454 33.1151V33.1123Z" fill="#FF725E"/>
<g opacity="0.3">
<path d="M19.039 34.6045C17.4078 41.5757 15.7738 48.544 14.1426 55.5152L15.8018 57.2726C17.5085 56.5126 18.6808 54.6881 18.664 52.8245C18.6556 51.8578 18.3591 50.9162 18.3171 49.9494C18.2276 47.7701 19.4335 45.7723 19.9847 43.6628C20.7653 40.6732 20.2029 37.4684 19.039 34.6073V34.6045Z" fill="black"/>
</g>
<path d="M34.8921 34.0931C36.8395 34.4508 38.3616 36.5212 38.8036 38.7396C39.0611 40.0389 39.8193 46.3031 39.8193 46.3031L40.2362 48.597C40.2362 48.597 40.5859 56.493 38.91 57.3732C36.9514 58.4014 35.8294 57.2726 35.1831 56.4455C34.5396 55.6185 33.8457 50.2372 33.8457 50.2372L34.5816 37.3622L34.8921 34.0903V34.0931Z" fill="#FF725E"/>
<path d="M35.8212 37.2588C35.8212 37.2588 35.8184 37.337 35.7988 37.4851C35.7764 37.6472 35.7457 37.8595 35.7065 38.1305C35.617 38.7033 35.4939 39.5108 35.34 40.4999C35.1777 41.503 34.9874 42.6932 34.7776 44.0092C34.6685 44.6714 34.5565 45.3643 34.439 46.0824C34.3187 46.8005 34.176 47.5409 34.1145 48.3065C34.0753 48.7591 34.0725 49.2062 34.1089 49.6253V49.6169C34.7132 52.3271 35.2812 54.7244 35.7093 56.44C35.9247 57.2866 36.101 57.9711 36.2269 58.4573C36.2857 58.6836 36.3332 58.8652 36.3696 59.0021C36.4004 59.1278 36.4144 59.1921 36.4116 59.1949C36.406 59.1949 36.3836 59.1334 36.3444 59.0105C36.3025 58.8764 36.2465 58.6975 36.1765 58.474C36.0367 58.0046 35.8436 57.3201 35.617 56.4651C35.1665 54.7551 34.5789 52.3606 33.969 49.6504V49.6448V49.6392C33.9326 49.2089 33.9354 48.7535 33.9746 48.2953C34.0361 47.5185 34.1816 46.7781 34.3019 46.0601C34.4222 45.342 34.537 44.6491 34.6489 43.9897C34.8727 42.6737 35.0742 41.4862 35.242 40.4859C35.4155 39.4996 35.5554 38.6977 35.6561 38.1249C35.7065 37.8567 35.7457 37.6444 35.7764 37.4851C35.8044 37.3398 35.824 37.2616 35.8268 37.2644L35.8212 37.2588Z" fill="#263238"/>
<path d="M15.0488 35.6912L16.5345 55.5067C16.5345 55.5067 19.3101 42.872 19.4248 39.6392C19.5395 36.4065 18.8624 34.1294 18.8624 34.1294C18.8624 34.1294 16.1708 33.7075 15.0488 35.6912Z" fill="#455A64"/>
<path d="M14.1992 34.4258C14.1992 34.4258 14.4091 34.4845 14.6945 34.6968C14.8371 34.8058 14.9659 34.9958 15.0414 35.2193C15.1197 35.44 15.1673 35.6943 15.1897 35.9569C15.2373 36.485 15.2345 36.9572 15.2345 37.3009C15.2345 37.6445 15.2345 37.8541 15.2121 37.8569C15.1925 37.8569 15.1561 37.6473 15.1309 37.3037C15.103 36.96 15.089 36.4878 15.0442 35.9709C14.9994 35.4596 14.8819 34.9902 14.6273 34.775C14.3783 34.5571 14.1852 34.4481 14.202 34.4258H14.1992Z" fill="#263238"/>
<path d="M24.4891 35.1437C24.4891 35.1437 24.4247 35.0878 24.3212 34.9705C24.2177 34.8531 24.0722 34.6771 23.8903 34.4536L23.9743 34.4424C23.7728 35.0264 23.4678 35.873 23.1153 36.823L23.0649 36.9571L22.9894 36.8425C22.9474 36.781 22.8999 36.7168 22.8579 36.6469C22.5921 36.1999 22.4298 35.7417 22.2787 35.3281C22.1304 34.9146 22.0101 34.5374 21.9066 34.2217C21.8031 33.906 21.7163 33.6517 21.652 33.4785C21.5904 33.3052 21.5513 33.2074 21.5625 33.2047C21.5708 33.2019 21.624 33.2885 21.7051 33.4589C21.7863 33.6266 21.887 33.878 22.0045 34.1882C22.122 34.5123 22.2591 34.8783 22.4074 35.2834C22.5641 35.6914 22.732 36.1468 22.9866 36.5715C23.0258 36.6385 23.0705 36.6972 23.1097 36.7559L22.9838 36.7755C23.3391 35.8283 23.6609 34.9873 23.8903 34.4117L23.9211 34.3307L23.9715 34.4005C24.31 34.8559 24.5059 35.1353 24.4919 35.1493L24.4891 35.1437Z" fill="#263238"/>
<path d="M30.9246 33.7803C30.9246 33.7803 30.8994 33.8781 30.8267 34.0457C30.7539 34.2134 30.6448 34.4508 30.5021 34.7442C30.3594 35.0376 30.1888 35.3841 29.9845 35.764C29.7775 36.144 29.5564 36.5631 29.2514 36.9739L29.1591 37.0996L29.1227 36.9459C29.1171 36.9264 29.1115 36.904 29.1087 36.8817C28.8793 35.9065 28.6807 35.0208 28.5436 34.3754L28.6331 34.3978C28.3953 34.6604 28.1351 34.7722 27.9896 34.8867C27.8385 34.9957 27.7685 35.0739 27.7601 35.0683C27.7545 35.0627 27.8105 34.9705 27.9532 34.842C28.0931 34.7107 28.3449 34.5822 28.5548 34.3307L28.6191 34.2525L28.6443 34.3531C28.8066 34.9929 29.022 35.8758 29.2514 36.8509C29.257 36.8733 29.2626 36.8956 29.2654 36.9152L29.1367 36.8873C29.4277 36.4961 29.6571 36.077 29.867 35.7054C30.0684 35.3366 30.2503 34.9985 30.4098 34.7023C30.5525 34.4397 30.6728 34.2134 30.7735 34.0234C30.8603 33.8641 30.9134 33.7775 30.9218 33.7831L30.9246 33.7803Z" fill="#263238"/>
<path d="M24.6294 35.0627C24.6294 35.0627 23.8432 45.261 23.6389 46.5742C23.4347 47.8846 24.1342 68.4461 24.1342 68.4461L28.734 68.7394C28.734 68.7394 28.7815 51.7656 28.734 51.6482C28.6864 51.5309 28.7564 39.6645 28.7564 39.6645L27.7127 34.937L25.9332 37.0409L24.6294 35.0627Z" fill="white"/>
<path d="M29.7641 44.7578C29.7753 44.7801 29.6018 44.8165 29.5207 45.0372C29.4815 45.1406 29.4703 45.2887 29.5431 45.406C29.6102 45.5261 29.7725 45.5876 29.9376 45.5569C30.1027 45.5262 30.2314 45.4116 30.251 45.2747C30.2761 45.1378 30.2118 45.0065 30.139 44.9226C29.9824 44.7466 29.8089 44.7718 29.8117 44.7466C29.8117 44.7382 29.8481 44.7187 29.9236 44.7215C29.9991 44.7215 30.1111 44.7578 30.2118 44.85C30.3097 44.9422 30.4076 45.0987 30.3825 45.2942C30.3629 45.4954 30.1726 45.6631 29.9628 45.6994C29.7529 45.7413 29.5151 45.6519 29.4256 45.4703C29.3332 45.2942 29.3696 45.1154 29.4256 44.9953C29.4871 44.8723 29.5794 44.7997 29.6494 44.7718C29.7193 44.7438 29.7613 44.7494 29.7641 44.755V44.7578Z" fill="#263238"/>
<path d="M29.7641 53.6626C29.7753 53.6849 29.6018 53.7212 29.5207 53.942C29.4815 54.0454 29.4703 54.1934 29.5431 54.3108C29.6102 54.4309 29.7725 54.4924 29.9376 54.4617C30.1027 54.4309 30.2314 54.3164 30.251 54.1795C30.2761 54.0426 30.2118 53.9112 30.139 53.8274C29.9824 53.6514 29.8089 53.6765 29.8117 53.6514C29.8117 53.643 29.8481 53.6235 29.9236 53.6262C29.9991 53.6262 30.1111 53.6626 30.2118 53.7548C30.3097 53.847 30.4076 54.0034 30.3825 54.199C30.3629 54.4002 30.1726 54.5678 29.9628 54.6042C29.7529 54.6461 29.5151 54.5567 29.4256 54.3751C29.3332 54.199 29.3696 54.0202 29.4256 53.9001C29.4871 53.7771 29.5794 53.7045 29.6494 53.6765C29.7193 53.6486 29.7613 53.6542 29.7641 53.6598V53.6626Z" fill="#263238"/>
<path d="M30.1684 64.4306C30.1796 64.453 30.0061 64.4893 29.925 64.71C29.8858 64.8134 29.8746 64.9615 29.9474 65.0789C30.0145 65.199 30.1768 65.2605 30.3419 65.2297C30.507 65.199 30.6357 65.0844 30.6552 64.9475C30.6804 64.8106 30.6161 64.6793 30.5433 64.5955C30.3866 64.4195 30.2132 64.4446 30.216 64.4195C30.216 64.4111 30.2523 64.3915 30.3279 64.3943C30.4034 64.3943 30.5154 64.4306 30.6161 64.5228C30.714 64.615 30.8119 64.7715 30.7868 64.9671C30.7672 65.1683 30.5769 65.3359 30.3671 65.3722C30.1572 65.4141 29.9194 65.3247 29.8299 65.1431C29.7375 64.9671 29.7739 64.7883 29.8299 64.6681C29.8914 64.5452 29.9837 64.4725 30.0537 64.4446C30.1236 64.4167 30.1656 64.4223 30.1684 64.4278V64.4306Z" fill="#263238"/>
<g opacity="0.3">
<path d="M36.1336 44.6798C36.0329 43.8667 35.8175 43.0676 35.7615 42.2518C35.6972 41.2738 35.865 40.282 35.6748 39.3208C35.0089 40.43 34.8578 41.7712 34.855 43.0648C34.8494 44.3585 34.9725 45.6605 34.7906 46.9402C34.6647 47.8147 34.3793 48.8709 34.273 49.7482C34.1667 50.6255 34.4185 51.1145 34.6759 52.4333C35.5629 49.9298 36.461 47.3174 36.1364 44.6826L36.1336 44.6798Z" fill="black"/>
</g>
<path d="M34.5805 42.6011C35.6577 45.5991 35.2184 49.1 33.4277 51.7376L34.5805 42.6011Z" fill="#FF725E"/>
<path d="M33.4311 51.7349C33.4059 51.7181 33.7137 51.2767 34.0803 50.4999C34.2677 50.1115 34.4524 49.6337 34.6231 49.0945C34.7853 48.5497 34.9252 47.9433 35.0092 47.2923C35.0875 46.6413 35.1015 46.0182 35.0819 45.4511C35.0511 44.8839 34.9896 44.3753 34.9056 43.9562C34.7434 43.1124 34.5559 42.6095 34.5839 42.6011C34.5923 42.5983 34.6426 42.7213 34.7266 42.9504C34.7685 43.0649 34.8189 43.2046 34.8609 43.3695C34.9056 43.5343 34.9672 43.7243 35.0064 43.9367C35.1043 44.3586 35.177 44.8727 35.2162 45.4455C35.2442 46.0182 35.2358 46.6525 35.1547 47.3119C35.0679 47.9713 34.9224 48.586 34.7518 49.1364C34.5727 49.6812 34.374 50.1618 34.1726 50.5474C34.0803 50.7458 33.9767 50.9106 33.8928 51.0615C33.8089 51.2124 33.7277 51.3353 33.6578 51.4359C33.5207 51.6371 33.4423 51.7433 33.4339 51.7377L33.4311 51.7349Z" fill="#263238"/>
<path d="M20.6834 56.0853C20.6722 56.0992 20.4596 55.94 20.1462 55.6522C19.8301 55.3644 19.416 54.9425 18.9963 54.4424C18.5794 53.9422 18.238 53.4589 18.0114 53.0984C17.7848 52.738 17.6644 52.5005 17.6812 52.4921C17.7008 52.4809 17.8491 52.6961 18.0981 53.0398C18.3471 53.3834 18.6969 53.8528 19.111 54.3502C19.5251 54.8447 19.9252 55.275 20.219 55.5795C20.5127 55.8841 20.7002 56.0713 20.6862 56.0881L20.6834 56.0853Z" fill="#263238"/>
<path d="M18.8406 56.3728C18.8238 56.3812 18.7091 56.1828 18.5552 55.8448C18.4013 55.5095 18.2138 55.0317 18.0487 54.4924C17.8837 53.9532 17.7745 53.453 17.713 53.0898C17.6514 52.7266 17.6347 52.4975 17.6542 52.4947C17.6962 52.4863 17.8585 53.3832 18.1886 54.4505C18.5132 55.5206 18.8797 56.3533 18.8378 56.3728H18.8406Z" fill="#263238"/>
<path d="M27.8377 51.0527C27.8237 51.0723 27.667 50.9633 27.3928 50.8543C27.1186 50.7426 26.7101 50.6532 26.2597 50.6839C25.8092 50.7174 25.4175 50.8655 25.1629 51.0136C24.9055 51.1617 24.7684 51.2902 24.7488 51.2734C24.7376 51.2651 24.8523 51.1058 25.1069 50.927C25.3615 50.7482 25.77 50.5749 26.2485 50.5386C26.7269 50.5051 27.1578 50.6196 27.4348 50.7593C27.7146 50.899 27.8489 51.0415 27.8377 51.0527Z" fill="#263238"/>
<path d="M12.304 50.388C12.304 50.388 10.2503 52.6204 10.407 54.1795C10.5637 55.7386 11.2911 59.1697 13.2189 59.0663C15.1439 58.9629 16.887 55.8699 17.1472 53.4167C17.4074 50.9636 17.1472 45.1938 17.1472 45.1938L14.4052 45.8113L12.3068 50.388H12.304Z" fill="#FFBE9D"/>
<path d="M8.22187 36.0798C9.64322 37.8932 13.1658 42.2659 13.1658 42.2659L16.4814 41.4249C16.722 41.3634 16.9011 41.1622 16.9318 40.9135C16.9514 40.7543 16.9067 40.5922 16.8059 40.4637L12.1614 34.5906C11.8032 34.1408 11.1961 33.9703 10.6589 34.1715L8.53524 34.9678C8.08197 35.1382 7.92529 35.697 8.22187 36.077V36.0798Z" fill="#263238"/>
<path d="M16.579 40.6845C16.579 40.6845 16.4586 40.5811 16.26 40.3799C16.0641 40.176 15.7815 39.877 15.443 39.497C14.7659 38.7398 13.8594 37.6669 12.9277 36.4235C12.6954 36.1134 12.4716 35.8088 12.2589 35.5099C12.0491 35.2137 11.8421 34.9259 11.5651 34.7723C11.2881 34.6102 10.9691 34.6773 10.6949 34.775C10.4151 34.87 10.1521 34.9595 9.90868 35.0433C9.44422 35.197 9.06091 35.3227 8.76712 35.4205C8.49572 35.5071 8.34463 35.549 8.34184 35.5406C8.33904 35.5322 8.48453 35.4708 8.74754 35.3674C9.03852 35.2584 9.41624 35.1159 9.8751 34.9455C10.1157 34.8589 10.3787 34.7639 10.6557 34.6605C10.7984 34.6102 10.9523 34.5627 11.1202 34.5487C11.2881 34.532 11.4727 34.5711 11.6294 34.6549C11.9484 34.8281 12.1638 35.1355 12.3765 35.4289C12.5919 35.7222 12.8157 36.0268 13.0452 36.3369C13.9741 37.5747 14.8638 38.656 15.5213 39.4299C15.8375 39.7988 16.1033 40.1061 16.3048 40.3436C16.4894 40.5587 16.5901 40.6817 16.5818 40.6873L16.579 40.6845Z" fill="#455A64"/>
<path d="M10.1028 35.4705C10.2343 35.4063 10.4106 35.4677 10.475 35.5963C10.5393 35.7276 10.4778 35.9036 10.349 35.9679C10.2175 36.0321 10.0413 35.9707 9.97692 35.8421C9.91257 35.7108 9.97412 35.5348 10.1028 35.4705Z" fill="white"/>
<path d="M12.9473 39.4354L11.414 39.6897L10.8488 40.1898C10.6921 40.3295 10.6082 40.5391 10.6362 40.7458C10.6642 40.947 10.7509 41.2068 10.9831 41.489C11.3497 41.9305 11.649 42.154 11.649 42.154C11.649 42.154 11.109 43.0258 11.9456 43.4672C11.9456 43.4672 11.8897 44.3725 12.7654 44.4647C12.7654 44.4647 13.02 45.3225 13.6775 45.37L14.3602 46.0433L14.1532 46.4569L17.1945 46.5491C17.1945 46.5491 17.2169 44.8838 17.0742 44.1238C16.9371 43.3946 16.8364 43.1627 16.8364 43.1627C16.9903 42.3049 16.3496 41.9501 16.2544 42.0087C16.2544 42.0087 17.7066 41.6287 17.5191 40.6313L16.1257 40.9889L13.5712 41.5198L15.208 40.4245C15.2892 40.3491 15.3647 40.2652 15.4235 40.173C15.5633 39.9523 15.7704 39.5528 15.5941 39.3209C15.5186 39.2203 13.5041 40.0613 13.5041 40.0613L12.2674 41.2152L11.8785 40.662C11.8785 40.662 13.1515 40.3938 12.9501 39.4354H12.9473Z" fill="#FFBE9D"/>
<path d="M16.4502 42.0257C16.4558 42.0676 15.9102 42.1458 15.2639 42.3358C14.6147 42.5202 14.1139 42.7465 14.0943 42.7074C14.0747 42.6739 14.5588 42.3861 15.2219 42.1961C15.885 42.0033 16.4474 41.9893 16.4502 42.0257Z" fill="#EB996E"/>
<path d="M15.7488 44.6548C15.732 44.6352 15.9866 44.4844 16.258 44.1128L16.3084 44.0429L16.3448 44.1239C16.3895 44.2217 16.4763 44.3111 16.5938 44.3614C16.7085 44.4089 16.8624 44.4173 16.9603 44.3391C17.0079 44.3 17.0247 44.2552 17.0135 44.1798C16.9995 44.0988 16.9855 44.015 16.9715 43.9283C16.9379 43.7579 16.9239 43.5679 16.868 43.4142C16.812 43.2578 16.6833 43.1712 16.5266 43.1712C16.3699 43.1656 16.2161 43.2187 16.0622 43.2578C15.7656 43.3304 15.4914 43.3975 15.2396 43.4589C14.7723 43.5707 14.4813 43.6266 14.4785 43.607C14.4757 43.5875 14.7583 43.4925 15.2172 43.3584C15.4634 43.2885 15.732 43.2103 16.023 43.1292C16.1741 43.0873 16.3392 43.0231 16.5322 43.0287C16.6274 43.0287 16.7309 43.0538 16.8204 43.1153C16.9099 43.1767 16.9687 43.2689 17.0051 43.3639C17.075 43.5595 17.0834 43.7356 17.1142 43.9088C17.1282 43.9954 17.1394 44.082 17.1534 44.1658C17.1729 44.2553 17.131 44.3922 17.047 44.4452C16.882 44.5626 16.6861 44.5347 16.549 44.4704C16.4063 44.4033 16.3028 44.286 16.2552 44.163L16.342 44.1742C16.1909 44.3614 16.0426 44.4844 15.9335 44.5598C15.8243 44.6352 15.7572 44.6632 15.7516 44.6548H15.7488Z" fill="#EB996E"/>
<path d="M13.0614 40.4385C13.0921 40.4664 12.762 40.8464 12.3787 41.3298C11.9953 41.8132 11.7016 42.2183 11.6652 42.1959C11.6316 42.1764 11.875 41.7265 12.2639 41.2376C12.6529 40.7458 13.0334 40.4078 13.0614 40.4357V40.4385Z" fill="#EB996E"/>
<path d="M13.6913 41.4863C13.7053 41.5255 13.3723 41.626 13.1429 41.9557C12.9023 42.2771 12.9107 42.6235 12.8687 42.6235C12.8519 42.6235 12.8212 42.5397 12.8295 42.3944C12.8379 42.2519 12.8939 42.0507 13.0254 41.8691C13.1569 41.6875 13.3276 41.5702 13.4619 41.5199C13.5962 41.4668 13.6885 41.4696 13.6913 41.4863Z" fill="#EB996E"/>
<path d="M30.1071 18.9744C29.8721 18.3597 29.9644 17.6752 29.8721 17.0214C29.6679 15.588 28.5123 14.4369 27.1749 13.8753C25.9298 13.3528 24.4105 13.4645 22.9108 13.9479C21.8812 14.2776 20.9131 14.856 20.2276 15.6886C19.3155 16.7951 18.9937 18.3569 19.3938 19.7316L26.7412 18.6727C27.4295 19.2426 28.1318 19.821 28.9656 20.1395C29.209 20.2317 29.4748 20.3044 29.7322 20.2625C29.9896 20.2206 30.2414 20.0473 30.303 19.7931C30.3701 19.5165 30.2051 19.2426 30.1043 18.9744H30.1071Z" fill="#263238"/>
<path d="M25.5422 13.5094C27.151 13.2384 28.564 13.8587 29.9182 14.7667C31.2724 15.6748 32.2936 17.0411 32.8812 18.5611C33.4995 20.1621 33.6562 22.4755 33.175 24.124C32.6965 25.7725 31.5298 26.974 30.0245 27.5048C27.8113 28.2844 25.2568 28.1894 23.3878 26.7756C21.5188 25.3618 20.45 23.0232 20.3632 20.6818C20.3045 19.0696 20.6906 17.4183 21.5971 16.08C22.5008 14.7416 23.9418 13.7441 25.5422 13.5094Z" fill="#263238"/>
<path d="M22.9878 30.9776L23.0465 32.2852L25.9312 37.3844L30.1393 32.017L30.282 18.6195C30.2708 17.9992 29.7868 17.4907 29.1656 17.446L22.7528 16.0797C20.7103 15.94 19.4512 18.4938 19.4008 20.5362C19.3421 22.8078 19.3617 25.5795 19.6946 27.2615C20.3633 30.6395 22.9878 30.9748 22.9878 30.9748" fill="#FFBE9D"/>
<path d="M20.3184 23.3585C20.3184 23.5904 20.5142 23.7776 20.7548 23.7832C20.9955 23.786 21.1913 23.6044 21.1913 23.3725C21.1913 23.1434 20.9955 22.9534 20.7548 22.9478C20.5142 22.945 20.3184 23.1266 20.3184 23.3585Z" fill="#263238"/>
<path d="M20.0548 21.8497C20.1108 21.9056 20.4325 21.6485 20.9026 21.6318C21.3726 21.6094 21.7252 21.8358 21.7727 21.7771C21.7979 21.7519 21.7391 21.6513 21.5825 21.548C21.4314 21.4446 21.174 21.3496 20.883 21.3608C20.5892 21.3747 20.3486 21.4893 20.2115 21.6066C20.0716 21.724 20.0268 21.8274 20.0548 21.8525V21.8497Z" fill="#263238"/>
<path d="M24.5801 23.2775C24.5801 23.5066 24.7759 23.6966 25.0166 23.7022C25.2572 23.7049 25.453 23.5233 25.453 23.2914C25.453 23.0623 25.2572 22.8723 25.0166 22.8667C24.7759 22.8639 24.5801 23.0456 24.5801 23.2775Z" fill="#263238"/>
<path d="M24.5138 21.7438C24.5697 21.7996 24.8915 21.5426 25.3616 21.5258C25.8316 21.5035 26.1841 21.7298 26.2317 21.6711C26.2569 21.646 26.1981 21.5454 26.0415 21.442C25.8904 21.3386 25.633 21.2436 25.342 21.2548C25.0482 21.2688 24.8076 21.3833 24.6705 21.5007C24.5306 21.618 24.4858 21.7214 24.5138 21.7466V21.7438Z" fill="#263238"/>
<path d="M23.1018 25.3063C23.1018 25.2783 22.808 25.2392 22.3351 25.1973C22.2148 25.1889 22.1001 25.1694 22.0777 25.0883C22.047 25.0017 22.0917 24.8732 22.1449 24.7307C22.2456 24.4373 22.3519 24.1272 22.4666 23.8059C22.9115 22.4899 23.2277 21.4086 23.1745 21.3918C23.1214 21.375 22.7185 22.4284 22.2736 23.7444C22.1673 24.0685 22.0665 24.3786 21.9686 24.6748C21.9294 24.8117 21.8567 24.971 21.9238 25.147C21.9602 25.2364 22.0497 25.2979 22.1281 25.3146C22.2064 25.3342 22.2736 25.3342 22.3323 25.3342C22.808 25.3426 23.1046 25.3342 23.1046 25.3063H23.1018Z" fill="#263238"/>
<path d="M22.9863 30.9782C22.9863 30.9782 25.2806 30.9307 27.4994 29.4834C27.4994 29.4834 26.4418 31.8779 23.0255 31.6879L22.9891 30.9782H22.9863Z" fill="#EB996E"/>
<path d="M23.4625 26.3148C23.6612 26.108 23.8514 26.0577 24.148 26.0801C24.3523 26.0941 24.453 26.1974 24.5817 26.3567C24.7104 26.5188 24.73 26.8429 24.6237 27.0049C24.5034 27.1865 24.2403 27.2396 24.0137 27.1837C23.7871 27.1279 23.6276 27.0608 23.4401 26.9211C23.387 26.882 23.3506 26.7954 23.3338 26.7339C23.2807 26.5439 23.4262 26.3651 23.4625 26.3176" fill="#EB996E"/>
<path d="M24.5433 20.6426C24.5937 20.7684 25.0609 20.6901 25.6149 20.7348C26.1689 20.7684 26.6194 20.9137 26.6893 20.7963C26.7201 20.7404 26.639 20.6231 26.4543 20.5057C26.2724 20.3884 25.9842 20.2822 25.6513 20.2571C25.3183 20.2347 25.019 20.2962 24.8203 20.3856C24.6217 20.475 24.5237 20.5784 24.5461 20.637L24.5433 20.6426Z" fill="#263238"/>
<path d="M20.1172 19.7963C20.204 19.8997 20.5229 19.7767 20.9118 19.7572C21.3008 19.7237 21.6337 19.8019 21.7037 19.6873C21.7344 19.6315 21.6785 19.5281 21.5302 19.4331C21.3847 19.3381 21.1441 19.2654 20.8783 19.2822C20.6125 19.3018 20.383 19.4051 20.2515 19.5197C20.1172 19.6343 20.0781 19.746 20.1144 19.7963H20.1172Z" fill="#263238"/>
<path d="M31.2827 17.9885C30.6196 16.0383 27.7209 13.3755 25.6644 13.5572L22.416 15.5856C22.6371 16.7005 23.5184 17.6588 24.6124 17.969C25.1972 18.1338 25.8966 18.1701 26.252 18.6619C26.6157 19.1648 26.4227 19.9108 26.7612 20.4305C27.2313 21.1514 28.4735 21.0927 28.8289 21.875C28.9856 22.2159 28.9128 22.6294 29.0751 22.9675C29.2905 23.4174 30.4545 23.9734 30.9301 23.8141C31.403 23.6549 31.3918 22.8418 31.5373 22.4143C31.7891 21.6823 31.6744 21.3079 31.5793 20.9055C31.3526 19.9499 31.5988 18.9189 31.2827 17.9885Z" fill="#263238"/>
<path d="M29.5321 24.2418C29.5237 23.9875 29.7923 23.3812 30.0413 23.3337C30.7044 23.2052 31.9131 23.2135 31.9859 24.9067C32.0894 27.223 29.7391 26.8486 29.7307 26.7816C29.7252 26.7285 29.5601 25.1163 29.5293 24.2418H29.5321Z" fill="#FFBE9D"/>
<path d="M30.4006 25.8732C30.4006 25.8732 30.4426 25.8983 30.5125 25.9291C30.5797 25.957 30.6972 25.9738 30.8147 25.9207C31.0553 25.8201 31.2456 25.4233 31.2372 25.0042C31.2344 24.7919 31.1812 24.5935 31.0973 24.4315C31.0189 24.2638 30.9042 24.152 30.7783 24.1353C30.6552 24.1129 30.5713 24.1912 30.5461 24.2554C30.5181 24.3225 30.5349 24.3672 30.5237 24.3728C30.5181 24.3784 30.4733 24.3365 30.4873 24.2387C30.4957 24.1912 30.5209 24.1353 30.5713 24.0906C30.6244 24.0431 30.7056 24.0151 30.7923 24.0207C30.9714 24.0263 31.1392 24.1828 31.2316 24.3616C31.3323 24.5404 31.3967 24.7639 31.3995 25.0014C31.405 25.468 31.184 25.9151 30.8539 26.0269C30.6916 26.0771 30.5545 26.0324 30.4817 25.9821C30.4062 25.9291 30.3922 25.876 30.4006 25.8732Z" fill="#EB996E"/>
<path d="M33.3877 21.0728C33.4045 21.0728 33.466 20.813 33.4744 20.3771C33.4828 19.944 33.4213 19.3377 33.2086 18.7063C32.996 18.0748 32.6798 17.5523 32.4112 17.2114C32.1426 16.8706 31.9328 16.6973 31.9216 16.7085C31.8796 16.7393 32.6546 17.5104 33.0631 18.7538C33.4884 19.9915 33.3345 21.0728 33.3849 21.0728H33.3877Z" fill="#FF725E"/>
<path d="M23.0936 14.8871C22.8782 15.8287 21.4428 17.0385 20.8105 17.7706C19.6074 19.1704 19.3808 19.3772 19.3891 23.5962C18.824 22.5149 18.3763 20.6233 18.4211 19.4023C18.4658 18.1813 18.9191 16.9603 19.7697 16.083C20.6202 15.2056 21.8821 14.7083 23.0936 14.8843" fill="#263238"/>
<path d="M32.4665 17.9604C32.4665 17.9604 32.3294 18.0051 32.072 18.0582C31.9433 18.0861 31.7866 18.1169 31.602 18.1392C31.4173 18.1616 31.2075 18.1979 30.9752 18.2119C30.508 18.2566 29.9484 18.2622 29.33 18.2258C28.7117 18.1811 28.0346 18.0861 27.3379 17.9213C26.644 17.7481 25.9977 17.519 25.4297 17.2731C24.8645 17.0188 24.3721 16.7562 23.9776 16.5019C23.7761 16.3846 23.6055 16.256 23.4544 16.1499C23.3005 16.0465 23.1746 15.9459 23.0767 15.8621C22.8752 15.6972 22.7661 15.6022 22.7717 15.5939C22.7773 15.5855 22.8976 15.6665 23.1102 15.8202C23.2138 15.8984 23.3453 15.9906 23.502 16.0884C23.6586 16.189 23.8293 16.3091 24.0336 16.4209C24.4309 16.6612 24.9233 16.9154 25.4857 17.1585C26.0509 17.3932 26.6888 17.6167 27.3771 17.7872C28.0654 17.952 28.7341 18.047 29.344 18.1001C29.9568 18.142 30.5108 18.1448 30.9724 18.1141C31.2047 18.1085 31.4145 18.0806 31.5964 18.0638C31.781 18.0498 31.9377 18.0275 32.0664 18.0051C32.3238 17.9688 32.4665 17.952 32.4693 17.9604H32.4665Z" fill="#455A64"/>
<path d="M32.7067 19.62C32.7067 19.62 32.6116 19.6535 32.4381 19.6843C32.2646 19.7206 32.0072 19.7541 31.6911 19.7793C31.0559 19.8323 30.1662 19.8156 29.2093 19.6284C28.2524 19.4384 27.4242 19.1143 26.8562 18.8265C26.5708 18.684 26.347 18.5555 26.1987 18.4549C26.0504 18.3571 25.9693 18.3012 25.9749 18.2928C25.9889 18.2733 26.3246 18.4744 26.8982 18.7371C27.4718 18.9997 28.2916 19.3043 29.2373 19.4915C30.1802 19.6759 31.0559 19.7066 31.6855 19.6787C32.315 19.6535 32.7039 19.5921 32.7095 19.6172L32.7067 19.62Z" fill="#455A64"/>
<path d="M33.2913 19.6787C33.2913 19.6787 33.3333 19.7989 33.3697 20.028C33.4088 20.2543 33.4424 20.5868 33.4648 20.9975C33.4872 21.4082 33.4928 21.8972 33.4648 22.442C33.4312 22.9841 33.3809 23.5848 33.227 24.1995C32.9024 25.44 32.1106 26.3621 31.4251 26.8203C31.0838 27.055 30.776 27.1947 30.5634 27.2841C30.3507 27.3707 30.2276 27.4071 30.2248 27.3987C30.2192 27.3875 30.3367 27.3372 30.541 27.2338C30.7452 27.1332 31.039 26.9796 31.3664 26.7393C31.6965 26.5018 32.0463 26.1637 32.354 25.7278C32.6506 25.2836 32.9528 24.7695 33.0899 24.166C33.241 23.568 33.2969 22.9729 33.3361 22.4364C33.3725 21.8972 33.3753 21.411 33.3669 21.0031C33.3585 20.5952 33.3389 20.2655 33.3165 20.0363C33.2969 19.81 33.2829 19.6843 33.2941 19.6815L33.2913 19.6787Z" fill="#455A64"/>
<path d="M24.0416 27.1835C24.0443 27.1612 24.2066 27.2171 24.4025 27.0941C24.4976 27.0355 24.5871 26.9293 24.6095 26.7868C24.6347 26.6471 24.5955 26.4766 24.4864 26.3509C24.3773 26.2252 24.215 26.1637 24.0667 26.1525C23.9184 26.1414 23.7841 26.1833 23.6806 26.2364C23.4736 26.3481 23.3868 26.4794 23.3672 26.4655C23.3533 26.4599 23.4092 26.2978 23.6275 26.1469C23.7366 26.0743 23.8905 26.0128 24.0723 26.0184C24.2486 26.024 24.4501 26.0939 24.5927 26.2559C24.7326 26.418 24.7774 26.6331 24.7382 26.8119C24.7019 26.9963 24.5704 27.1277 24.4501 27.1835C24.1954 27.3037 24.0248 27.1919 24.0388 27.1835H24.0416Z" fill="#263238"/>
<path d="M38.3524 46.2586L39.6003 43.6015C39.8073 42.7717 40.6523 42.4923 41.6875 42.4196L42.7815 41.9726C42.7815 41.9726 43.5789 40.8242 44.3176 40.841C44.4351 40.841 44.5414 40.922 44.575 41.0366C44.5974 41.1148 44.5862 41.1958 44.5414 41.2657L43.6433 42.6459L42.9298 43.0008C42.9298 43.0008 43.5985 43.1628 43.8643 42.9114C44.1301 42.6599 45.0311 41.953 45.0311 41.953C45.0311 41.953 45.7138 40.7208 46.6063 40.813C46.721 40.8242 46.7882 40.9499 46.735 41.0505L46.0523 42.3665C46.0523 42.3665 47.2974 40.4973 48.4837 41.1958L47.1687 42.6236C47.1687 42.6236 49.0769 41.5423 49.8379 42.4476L45.0059 44.4397L42.2219 44.9846L41.2483 47.6193L40.3921 47.1332L38.3496 46.2614L38.3524 46.2586Z" fill="#FFBE9D"/>
<path d="M41.2445 49.7123C41.2445 49.7123 41.3928 54.4342 40.5199 55.7363C39.6469 57.0383 38.0269 58.8013 36.018 57.3903L34.7617 52.6377C34.7617 52.6377 36.807 50.3968 37.1791 49.4804C38.1081 47.1921 39.6021 43.6045 39.6021 43.6045L42.2686 44.7892L41.2501 49.7123H41.2445Z" fill="#FFBE9D"/>
<path d="M37.4784 49.0501C37.4952 49.0613 37.3721 49.2848 37.1762 49.6452C36.9804 50.0057 36.7174 50.5114 36.4572 51.0786C36.197 51.6486 35.9871 52.1767 35.8416 52.5594C35.6961 52.945 35.6066 53.1825 35.587 53.1769C35.5702 53.1713 35.6234 52.9199 35.7437 52.5259C35.8668 52.1319 36.0627 51.5927 36.3257 51.0171C36.5887 50.4415 36.8685 49.9414 37.0895 49.5922C37.3105 49.2401 37.4644 49.0361 37.4812 49.0473L37.4784 49.0501Z" fill="#EB996E"/>
<path d="M43.6473 42.6401C43.6641 42.6765 43.3731 42.8497 42.9954 43.0229C42.6177 43.199 42.2987 43.3107 42.2819 43.2744C42.2652 43.2381 42.5561 43.0648 42.9339 42.8916C43.3088 42.7156 43.6277 42.6038 43.6473 42.6401Z" fill="#EB996E"/>
<path d="M44.0477 43.8892C44.0393 43.8724 44.1708 43.7858 44.4003 43.6908C44.5346 43.635 44.6689 43.5819 44.8032 43.526C44.8815 43.4925 44.9571 43.4617 45.0354 43.4282C45.1249 43.3919 45.1669 43.3583 45.2312 43.2857C45.4747 43.0119 45.6733 42.7297 45.8328 42.5397C45.9867 42.3497 46.1042 42.2351 46.1266 42.2603C46.1266 42.2715 46.1126 42.291 46.0734 42.3553C46.0203 42.4391 45.9671 42.5201 45.9167 42.6012C45.7768 42.8079 45.595 43.0929 45.3376 43.3863C45.304 43.4226 45.2704 43.4561 45.2257 43.4925C45.1725 43.5316 45.1361 43.54 45.0914 43.5623C45.0074 43.5986 44.9263 43.6294 44.8479 43.6545C44.6912 43.7104 44.5513 43.7523 44.4338 43.7914C44.1988 43.8641 44.0533 43.9116 44.0449 43.8948L44.0477 43.8892Z" fill="#EB996E"/>
</g>
<defs>
<clipPath id="clip0_4151_14108">
<rect width="123" height="124" fill="white"/>
</clipPath>
</defs>
</svg>
