<svg viewBox="0 0 360 325" fill="none" xmlns="http://www.w3.org/2000/svg">
<g opacity="0.2">
<path d="M81.8445 83.341C77.2844 81.2282 69.7425 84.6635 67.3371 89.69C62.7465 99.285 77.5936 113.181 82.9923 111.69C89.026 110.023 90.2168 87.2198 81.8437 83.341H81.8445Z" stroke="#2DA77D" stroke-miterlimit="10" stroke-linecap="round"/>
<path d="M59.0338 105.075C57.4061 104.147 40.1667 94.3236 30.4099 102.098C23.559 107.557 23.4939 119.227 28.642 125.784C38.8383 138.773 70.4555 132.95 73.7358 123.655C75.945 117.396 65.573 108.801 59.0338 105.075Z" stroke="#2DA77D" stroke-miterlimit="10" stroke-linecap="round"/>
<path d="M82.5611 263.546C120.18 254.365 162.924 245.017 229.298 246.609C266.418 247.5 274.83 236.172 302.963 222.088C328.038 209.536 340.354 184.575 332.79 170.429C325.154 156.147 301.895 161.833 282.846 140.574C274.171 130.891 275.698 124.105 270.689 113.368C254.829 79.3695 195.386 52.7958 166.073 66.8593C127.347 85.4385 160.454 165.716 117.166 187.646C89.7841 201.518 69.0879 174.888 42.0514 195.217C28.6551 205.289 12.2708 219.419 11.0038 234.76C11.0038 234.76 9.22963 272.269 82.5611 263.546Z" stroke="#2DA77D" stroke-miterlimit="10" stroke-linecap="round"/>
<path d="M297.34 235.619C297.34 235.619 290.569 244.44 283.797 256.543C277.442 267.903 271.351 283.805 270.594 296.368C248.265 293.986 216.212 293.769 180.661 293.769C132.564 293.769 109.919 295.254 90.3923 296.223C65.7927 265.962 12.6977 211.1 59.9065 188.863C59.9065 188.863 63.3094 187.844 68.4112 185.657C84.5582 178.732 117.74 160.097 114.049 124.962C114.049 124.962 112.791 118.406 112.791 109.283C112.791 87.9513 119.664 52.5919 165.546 54.2057C193.331 55.1844 218.92 69.0779 234.391 91.3161C249.566 113.128 273.829 139.964 293.588 124.643C298.149 121.105 304.18 119.794 309.811 121.35C324.033 125.275 340.191 145.597 297.34 235.619Z" fill="#A6F7DB"/>
</g>
<path opacity="0.15" d="M294.402 296.624C294.402 298.796 248.622 300.556 192.15 300.556C160.286 300.556 131.827 299.996 113.074 299.117C108.755 298.915 104.951 298.695 101.739 298.462C99.6231 298.309 97.7644 298.149 96.1845 297.984C92.1191 297.561 89.8984 297.103 89.8984 296.624C89.8984 296.015 93.5028 295.437 99.9348 294.923C102.569 294.712 105.677 294.511 109.207 294.324C127.779 293.335 158.011 292.691 192.149 292.691C222.179 292.691 249.185 293.189 267.893 293.982C284.364 294.68 294.401 295.608 294.401 296.624H294.402Z" fill="black"/>
<path d="M202 295.994L183.085 296L183.037 155.593L183.004 56.2675L183 44.1989C182.999 41.3295 185.446 39.0027 188.466 39.0018L196.446 39C199.466 38.9991 201.915 41.324 201.916 44.1935L201.92 56.2611L201.953 155.587L202 295.994Z" fill="#2DA77D"/>
<path opacity="0.1" d="M200.293 82.2305H183.961V171.14H200.293V82.2305Z" fill="black"/>
<path d="M277.079 143.966L109.959 144C106.135 144.001 103.035 142.007 103.034 139.546L103 72.4913C102.999 70.0301 106.097 68.0348 109.921 68.0341L277.041 68C280.865 67.9993 283.965 69.9931 283.966 72.4543L284 139.509C284.001 141.97 280.903 143.965 277.079 143.966Z" fill="#2DA77D"/>
<path d="M341.774 63.8462C343.92 59.3563 340.431 51.9304 335.326 49.562C325.581 45.042 311.468 59.6607 312.982 64.9764C314.675 70.9173 337.835 72.0897 341.774 63.8454L341.774 63.8462Z" stroke="#2DA77D" stroke-opacity="0.4" stroke-miterlimit="10" stroke-linecap="round"/>
<path d="M319.7 41.3853C320.642 39.7825 330.619 22.8084 322.722 13.2017C317.178 6.45622 305.327 6.39207 298.666 11.4609C285.475 21.5004 291.389 52.6312 300.829 55.8611C307.185 58.0362 315.915 47.8238 319.7 41.3853Z" stroke="#2DA77D" stroke-opacity="0.4" stroke-miterlimit="10" stroke-linecap="round"/>
<path d="M172.357 104.553V105.871C172.357 107.805 172.1 109.545 171.584 111.092C171.068 112.627 170.336 113.934 169.387 115.012C168.438 116.09 167.307 116.916 165.994 117.49C164.682 118.064 163.223 118.352 161.617 118.352C160.035 118.352 158.582 118.064 157.258 117.49C155.945 116.916 154.809 116.09 153.848 115.012C152.887 113.934 152.143 112.627 151.615 111.092C151.088 109.545 150.824 107.805 150.824 105.871V104.553C150.824 102.607 151.088 100.867 151.615 99.332C152.143 97.7969 152.881 96.4902 153.83 95.4121C154.779 94.3223 155.91 93.4902 157.223 92.916C158.547 92.3418 160 92.0547 161.582 92.0547C163.188 92.0547 164.646 92.3418 165.959 92.916C167.271 93.4902 168.402 94.3223 169.352 95.4121C170.312 96.4902 171.051 97.7969 171.566 99.332C172.094 100.867 172.357 102.607 172.357 104.553ZM167.471 105.871V104.518C167.471 103.123 167.342 101.898 167.084 100.844C166.826 99.7773 166.445 98.8809 165.941 98.1543C165.438 97.4277 164.816 96.8828 164.078 96.5195C163.34 96.1445 162.508 95.957 161.582 95.957C160.645 95.957 159.812 96.1445 159.086 96.5195C158.371 96.8828 157.762 97.4277 157.258 98.1543C156.754 98.8809 156.367 99.7773 156.098 100.844C155.84 101.898 155.711 103.123 155.711 104.518V105.871C155.711 107.254 155.84 108.479 156.098 109.545C156.367 110.611 156.754 111.514 157.258 112.252C157.773 112.979 158.395 113.529 159.121 113.904C159.848 114.279 160.68 114.467 161.617 114.467C162.555 114.467 163.387 114.279 164.113 113.904C164.84 113.529 165.449 112.979 165.941 112.252C166.445 111.514 166.826 110.611 167.084 109.545C167.342 108.479 167.471 107.254 167.471 105.871ZM175.275 108.684V108.314C175.275 106.92 175.475 105.637 175.873 104.465C176.271 103.281 176.852 102.256 177.613 101.389C178.375 100.521 179.307 99.8477 180.408 99.3672C181.51 98.875 182.764 98.6289 184.17 98.6289C185.6 98.6289 186.865 98.875 187.967 99.3672C189.08 99.8477 190.018 100.521 190.779 101.389C191.541 102.256 192.121 103.281 192.52 104.465C192.918 105.637 193.117 106.92 193.117 108.314V108.684C193.117 110.066 192.918 111.35 192.52 112.533C192.121 113.705 191.541 114.73 190.779 115.609C190.018 116.477 189.086 117.15 187.984 117.631C186.883 118.111 185.623 118.352 184.205 118.352C182.799 118.352 181.539 118.111 180.426 117.631C179.312 117.15 178.375 116.477 177.613 115.609C176.852 114.73 176.271 113.705 175.873 112.533C175.475 111.35 175.275 110.066 175.275 108.684ZM179.916 108.314V108.684C179.916 109.516 179.998 110.295 180.162 111.021C180.326 111.748 180.578 112.387 180.918 112.938C181.258 113.488 181.697 113.922 182.236 114.238C182.787 114.543 183.443 114.695 184.205 114.695C184.955 114.695 185.6 114.543 186.139 114.238C186.678 113.922 187.117 113.488 187.457 112.938C187.809 112.387 188.066 111.748 188.23 111.021C188.395 110.295 188.477 109.516 188.477 108.684V108.314C188.477 107.494 188.395 106.727 188.23 106.012C188.066 105.285 187.809 104.646 187.457 104.096C187.117 103.533 186.672 103.094 186.121 102.777C185.582 102.449 184.932 102.285 184.17 102.285C183.42 102.285 182.775 102.449 182.236 102.777C181.697 103.094 181.258 103.533 180.918 104.096C180.578 104.646 180.326 105.285 180.162 106.012C179.998 106.727 179.916 107.494 179.916 108.314ZM201.133 102.637V125.312H196.475V98.9805H200.781L201.133 102.637ZM213.35 108.297V108.666C213.35 110.049 213.186 111.332 212.857 112.516C212.541 113.688 212.072 114.713 211.451 115.592C210.83 116.459 210.057 117.139 209.131 117.631C208.217 118.111 207.162 118.352 205.967 118.352C204.795 118.352 203.775 118.129 202.908 117.684C202.041 117.227 201.309 116.582 200.711 115.75C200.113 114.918 199.633 113.951 199.27 112.85C198.918 111.736 198.654 110.523 198.479 109.211V108.033C198.654 106.639 198.918 105.373 199.27 104.236C199.633 103.088 200.113 102.098 200.711 101.266C201.309 100.422 202.035 99.7715 202.891 99.3145C203.758 98.8574 204.771 98.6289 205.932 98.6289C207.139 98.6289 208.199 98.8574 209.113 99.3145C210.039 99.7715 210.818 100.428 211.451 101.283C212.084 102.139 212.559 103.158 212.875 104.342C213.191 105.525 213.35 106.844 213.35 108.297ZM208.691 108.666V108.297C208.691 107.453 208.615 106.674 208.463 105.959C208.311 105.232 208.076 104.6 207.76 104.061C207.443 103.51 207.033 103.082 206.529 102.777C206.025 102.473 205.416 102.32 204.701 102.32C203.986 102.32 203.371 102.438 202.855 102.672C202.34 102.906 201.918 103.24 201.59 103.674C201.262 104.107 201.004 104.623 200.816 105.221C200.641 105.807 200.523 106.457 200.465 107.172V110.09C200.57 110.957 200.775 111.736 201.08 112.428C201.385 113.119 201.83 113.67 202.416 114.08C203.014 114.49 203.787 114.695 204.736 114.695C205.451 114.695 206.061 114.537 206.564 114.221C207.068 113.904 207.479 113.471 207.795 112.92C208.111 112.357 208.34 111.713 208.48 110.986C208.621 110.26 208.691 109.486 208.691 108.666ZM227.201 112.797C227.201 112.398 227.096 112.041 226.885 111.725C226.674 111.408 226.275 111.121 225.689 110.863C225.115 110.594 224.271 110.342 223.158 110.107C222.174 109.896 221.266 109.633 220.434 109.316C219.602 109 218.887 108.619 218.289 108.174C217.691 107.717 217.223 107.184 216.883 106.574C216.555 105.953 216.391 105.238 216.391 104.43C216.391 103.645 216.561 102.906 216.9 102.215C217.24 101.512 217.732 100.896 218.377 100.369C219.021 99.8301 219.807 99.4082 220.732 99.1035C221.658 98.7871 222.701 98.6289 223.861 98.6289C225.479 98.6289 226.867 98.8926 228.027 99.4199C229.199 99.9473 230.096 100.674 230.717 101.6C231.338 102.514 231.648 103.545 231.648 104.693H227.008C227.008 104.189 226.891 103.732 226.656 103.322C226.434 102.912 226.088 102.584 225.619 102.338C225.15 102.08 224.559 101.951 223.844 101.951C223.199 101.951 222.654 102.057 222.209 102.268C221.775 102.479 221.447 102.754 221.225 103.094C221.002 103.434 220.891 103.809 220.891 104.219C220.891 104.523 220.949 104.799 221.066 105.045C221.195 105.279 221.4 105.496 221.682 105.695C221.963 105.895 222.344 106.076 222.824 106.24C223.316 106.404 223.92 106.562 224.635 106.715C226.053 106.996 227.289 107.371 228.344 107.84C229.41 108.297 230.242 108.906 230.84 109.668C231.438 110.43 231.736 111.402 231.736 112.586C231.736 113.43 231.555 114.203 231.191 114.906C230.828 115.598 230.301 116.201 229.609 116.717C228.918 117.232 228.092 117.637 227.131 117.93C226.17 118.211 225.086 118.352 223.879 118.352C222.133 118.352 220.656 118.041 219.449 117.42C218.242 116.787 217.328 115.99 216.707 115.029C216.086 114.057 215.775 113.049 215.775 112.006H220.223C220.258 112.744 220.457 113.336 220.82 113.781C221.184 114.227 221.641 114.549 222.191 114.748C222.754 114.936 223.346 115.029 223.967 115.029C224.67 115.029 225.262 114.936 225.742 114.748C226.223 114.549 226.586 114.285 226.832 113.957C227.078 113.617 227.201 113.23 227.201 112.797ZM240.561 92.4062L240.051 110.318H236.131L235.621 92.4062H240.561ZM235.48 115.838C235.48 115.146 235.715 114.566 236.184 114.098C236.664 113.617 237.309 113.377 238.117 113.377C238.926 113.377 239.564 113.617 240.033 114.098C240.514 114.566 240.754 115.146 240.754 115.838C240.754 116.518 240.514 117.092 240.033 117.561C239.564 118.029 238.926 118.264 238.117 118.264C237.309 118.264 236.664 118.029 236.184 117.561C235.715 117.092 235.48 116.518 235.48 115.838Z" fill="white"/>
<path d="M269.554 280.318C269.554 280.318 270.248 288.725 269.047 290.584L277.114 292.327L275.342 278.508L269.553 280.318H269.554Z" fill="#DB965F"/>
<path d="M269.062 295.893C269.062 295.893 262.315 297.135 257.266 295.689C256.514 295.473 256.071 294.747 256.273 294.041C256.518 293.186 257.416 292.183 260.167 291.889C260.167 291.889 267.657 289.254 269.816 286.996C269.816 286.996 273.95 289.141 276.548 287.726C276.548 287.726 278.404 289.089 278.593 291.626C278.73 293.472 277.219 295.068 275.232 295.204C273.147 295.346 270.378 295.581 269.062 295.894V295.893Z" fill="#040C2B"/>
<path d="M280.357 279.822C280.357 279.822 281.05 288.229 279.85 290.088L287.917 291.831L286.145 278.012L280.356 279.822H280.357Z" fill="#DB965F"/>
<path d="M279.681 296.323C279.681 296.323 272.935 297.565 267.885 296.118C267.133 295.903 266.691 295.177 266.893 294.471C267.138 293.616 268.035 292.612 270.786 292.318C270.786 292.318 278.276 289.684 280.435 287.426C280.435 287.426 284.811 289.132 287.41 287.718C287.41 287.718 289.024 289.518 289.212 292.055C289.349 293.901 287.839 295.497 285.851 295.633C283.766 295.775 280.998 296.01 279.681 296.323Z" fill="#040C2B"/>
<path d="M281.344 217.592L274.605 248.563L276.158 281.259L274.518 281.42L267.806 282.077L263.124 250.402C262.647 247.17 262.516 243.902 262.732 240.646L264.56 213.152L281.671 216.091L281.345 217.592L281.344 217.592Z" fill="#040C2B"/>
<path opacity="0.15" d="M274.605 248.57L276.156 281.266L274.517 281.427L270.27 249.126L270.697 217.141L281.342 217.597L274.605 248.57Z" fill="black"/>
<path d="M288.799 215.183C288.799 215.183 291.063 220.645 289.23 233.72L287.414 250.255L287.79 282.934L279.031 283.035L274.452 255.116C273.638 250.055 273.315 244.937 273.486 239.822L274.396 212.691L288.799 215.183Z" fill="#040C2B"/>
<path d="M263.122 204.732L263.468 203.818L267.225 193.677L264.218 193.234L262.856 193.034L260.073 192.623L258.737 198.005L258.404 199.348L244 195.004C244 195.004 243.269 192.808 240.972 190.562C240.457 190.688 240.228 191.302 240.53 191.744L241.417 193.045C241.417 193.045 237.792 190.262 235.384 191.14C235.384 191.14 232.055 192.604 233.462 195.571C233.462 195.571 233.903 198.631 240.827 199.526L260.905 205.775C261.796 206.052 262.751 205.603 263.122 204.732" fill="#DB965F"/>
<path d="M283.079 179.005L283.045 185.2L273.701 186.88L268.273 184.15L270.621 181.15L271.919 179.492C272.179 179.16 272.289 178.732 272.222 178.313L271.09 171.201L280.194 167.176L279.426 172.827L279.301 173.755C279.026 176.765 283.08 179.005 283.08 179.005H283.079Z" fill="#C9885B"/>
<path opacity="0.15" d="M280.189 167.176L279.331 173.581C276.14 179.233 272.101 180.557 270.617 181.15L271.915 179.492C272.175 179.16 272.285 178.732 272.219 178.313L271.086 171.201L280.19 167.176H280.189Z" fill="black"/>
<path d="M281.497 167.805L280.431 170.499C279.268 172.231 278.117 173.561 277.05 174.582C274.02 177.482 271.671 177.884 271.671 177.884C270.665 178.049 269.845 177.297 269.185 176.098C267.324 172.717 266.725 165.775 266.725 165.775L278.337 164.375L281.497 167.805Z" fill="#DB965F"/>
<path d="M281.555 169.911C281.423 174.294 279.288 174.006 279.288 174.006L279.473 171.902L280.263 170.608C281.5 167.527 279.302 167.877 279.302 167.877C277.516 168.367 277.584 170.608 277.584 170.608H276.966C276.553 169.977 276.415 167.808 276.415 167.808C272.062 162.692 266.984 168.024 266.984 168.024C262.903 165.072 266.234 163.021 266.234 163.021C265.651 158.755 269.898 159.576 269.898 159.576C269.898 159.576 272.729 157.115 274.394 158.673C274.394 158.673 276.975 158.509 277.892 161.134C277.892 161.134 280.223 160.641 280.972 163.021C280.972 163.021 281.037 163.099 281.141 163.245C282.26 164.827 282.514 166.847 281.865 168.668C281.7 169.127 281.565 169.595 281.555 169.911V169.911Z" fill="black"/>
<path d="M264.803 200.076L262.893 199.401L258.941 198.003L258.07 197.696C260.243 186.062 262.353 183.698 263.316 183.26C263.664 183.102 263.862 183.195 263.862 183.195L264.421 193.234L264.802 200.076H264.803Z" fill="white"/>
<path opacity="0.15" d="M267.425 194.019L263.668 203.952L262.889 199.627L263.055 193.389L263.312 183.817C263.66 183.662 263.858 183.753 263.858 183.753L264.417 193.585L267.424 194.019H267.425Z" fill="black"/>
<path d="M291.252 196.011L291.138 201.785L291.087 204.349L290.997 208.875L290.961 210.726L290.947 211.449L290.91 213.29L290.884 214.627L290.893 215.224L290.93 217.798L290.962 220.027L262.234 218.878L262.332 217.68L262.541 215.107L262.69 213.29L262.875 211.333L262.933 210.727L263.119 208.761L263.537 204.35L263.759 202.016C263.766 201.939 263.77 201.862 263.766 201.786V201.772L263.556 195.409L263.47 192.845L263.306 187.862L263.221 185.297L263.172 183.847C263.16 183.501 263.357 183.184 263.668 183.047L269.603 180.437L269.841 180.333L272.001 179.383C271.169 181.532 271.998 182.698 273.033 183.325C273.516 183.618 274.049 183.787 274.593 183.838C274.723 183.849 274.852 183.855 274.982 183.852C275.528 183.847 276.077 183.722 276.585 183.481C282.901 180.493 281.529 177.906 281.529 177.906L283.457 179.191L283.779 179.406L290.636 183.974L290.704 185.298L290.837 187.863L291.094 192.845L291.157 194.057L291.227 195.409L291.251 195.876C291.253 195.922 291.254 195.967 291.253 196.013L291.252 196.011Z" fill="white"/>
<path d="M290.836 187.861H263.306L263.221 185.297H290.704L290.836 187.861Z" fill="#E3E9F7"/>
<path d="M291.226 195.412H263.556L263.471 192.848H291.094L291.156 194.06L291.226 195.412Z" fill="#E3E9F7"/>
<path d="M291.134 201.789L291.083 204.354H263.533L263.755 202.019C263.762 201.943 263.766 201.865 263.762 201.789H291.134Z" fill="#E3E9F7"/>
<path d="M291.001 208.878L290.964 210.728L290.95 211.45L262.879 211.334L262.937 210.728L263.123 208.762L291.001 208.878Z" fill="#E3E9F7"/>
<path d="M290.93 217.801L262.332 217.683L262.541 215.109L290.892 215.228L290.93 217.801Z" fill="#E3E9F7"/>
<path opacity="0.15" d="M291.253 195.941L290.883 214.625L289.672 214.7L286.912 193.75L291.155 194.053L291.253 195.941Z" fill="black"/>
<path d="M268 218C268 218 270.25 220.327 280.703 228.342C286.615 232.875 291.304 242.213 293.949 249.714C298.746 263.314 288.221 271.329 297.959 288.491C297.959 288.491 301.682 298.691 321.658 297.963H360" stroke="#868686" stroke-width="2" stroke-miterlimit="10"/>
<path d="M263.751 210.156L259.234 215.906L267.339 222.084L271.856 216.333L263.751 210.156Z" fill="#0F31AC"/>
<path opacity="0.1" d="M263.751 210.156L259.234 215.906L262.806 218.628L267.323 212.878L263.751 210.156Z" fill="black"/>
<path d="M268.978 208.788L259.214 221.221C257.669 223.188 254.8 223.549 252.803 222.027L238.354 211.015L253.71 191.461L268.16 202.473C270.156 203.995 270.522 206.822 268.978 208.788Z" fill="#2AA87D"/>
<path opacity="0.1" d="M262.019 197.787L246.662 217.341L245.975 216.818L244.727 218.408L240.408 215.117C240.454 215.045 240.505 214.976 240.559 214.907L258.094 192.579C258.148 192.511 258.204 192.445 258.263 192.383L262.581 195.673L261.333 197.263L262.02 197.786L262.019 197.787Z" fill="black"/>
<path d="M262.581 195.677L244.728 218.411L229.143 206.533C227.736 205.461 227.478 203.468 228.566 202.083L242.478 184.368C243.567 182.982 245.59 182.728 246.996 183.8L262.581 195.678V195.677Z" fill="#2AA87D"/>
<path opacity="0.1" d="M248.617 185.358L231.081 207.686C231.028 207.754 230.972 207.82 230.913 207.883L229.143 206.533C227.736 205.461 227.478 203.468 228.566 202.083L242.478 184.368C243.567 182.982 245.59 182.728 246.996 183.8L248.767 185.149C248.72 185.221 248.67 185.291 248.616 185.359L248.617 185.358Z" fill="black"/>
<path d="M227.076 207.493L227.26 207.632C228.214 208.36 229.587 208.187 230.325 207.247L248.003 184.738C248.742 183.798 248.566 182.446 247.612 181.719L247.428 181.579C246.473 180.851 245.101 181.024 244.363 181.964L226.686 204.473C225.947 205.414 226.122 206.766 227.076 207.493H227.076Z" fill="#2AA87D"/>
<path opacity="0.1" d="M263.647 203.384L262.754 202.703L251.647 216.844L252.54 217.524L263.647 203.384Z" fill="black"/>
<path opacity="0.1" d="M266.125 205.266L265.232 204.586L254.126 218.726L255.019 219.407L266.125 205.266Z" fill="black"/>
<path d="M294.414 193.004L288.093 196.574L292.009 205.954L283.078 221.703C283.078 221.703 280.81 221.913 278.131 223.663C278.131 224.201 278.663 224.572 279.155 224.377L280.604 223.803C280.604 223.803 277.1 226.742 277.375 229.332C277.375 229.332 277.993 232.972 281.154 232.272C281.154 232.272 284.177 232.552 286.651 225.902L297.025 207.658C297.532 206.768 297.673 205.709 297.417 204.713L294.415 193.004H294.414Z" fill="#DB965F"/>
<path d="M290.273 183.941C290.273 183.941 294.481 183.832 295.993 198.531L288.71 201.261C288.71 201.261 283.111 184.892 290.273 183.942V183.941Z" fill="white"/>
<path opacity="0.15" d="M275.643 184.694C275.096 184.567 275.006 183.923 275 183.875C275.094 184.254 275.369 184.518 275.643 184.694Z" fill="black"/>
<path d="M277.557 170.564L277.144 173.848C277.083 174.336 276.845 174.787 276.472 175.115C273.728 177.532 271.674 177.884 271.674 177.884C270.667 178.049 269.847 177.298 269.188 176.099C273.348 175.719 276.899 170.246 276.899 170.246L277.558 170.565L277.557 170.564Z" fill="black"/>
<path d="M108.163 285.266L107.184 291.749L111.033 293.171L113.618 290.56L112.535 284.98L108.163 285.266Z" fill="#DB965F"/>
<path d="M111.459 289.095C111.459 289.095 112.36 287.586 113.024 287.535C113.024 287.535 119.617 292.468 120.402 293.602C120.402 293.602 123.518 296.747 117.149 296.815L110.297 294.961C110.297 294.961 104.384 294.441 106.693 289.826L107.618 288.831C107.618 288.831 108.563 291.308 111.459 289.096L111.459 289.095Z" fill="#040C2B"/>
<path d="M119.998 244.455L117.018 262.23L113.387 287.162L108.815 286.812L107.479 286.711L108.53 261.32L105.768 222.435L118.035 221.633C118.035 221.633 121.154 232.9 119.998 244.455V244.455Z" fill="#040C2B"/>
<path opacity="0.15" d="M111.893 237.661C111.893 237.661 121.588 260.152 111.936 267.723L108.815 286.812L107.479 286.71L108.53 261.319L105.768 222.435L114.027 221.895L111.892 237.66L111.893 237.661Z" fill="black"/>
<path d="M96.0576 275.945L92.3848 280.302L96.9292 284.678L98.0573 283.558L99.878 276.951L96.0576 275.945Z" fill="#DB965F"/>
<path d="M90.642 279.507C90.642 279.507 89.725 280.613 90.2462 284.137C90.2462 284.137 90.6642 285.087 90.3633 286.92C90.3633 286.92 90.3995 291.661 94.958 294.154C94.958 294.154 97.5432 294.682 97.7369 290.205C97.7369 290.205 97.9819 284.807 98.5682 281.74C98.5682 281.74 95.508 282.813 93.9215 278.489C93.9215 278.489 92.9031 277.337 90.642 279.508V279.507Z" fill="#040C2B"/>
<path d="M97.0194 219.794C97.0194 219.794 92.0577 229.186 97.0137 239.675L104.931 257.188C105.495 258.436 105.379 259.88 104.623 261.025L94.7188 276.03L99.2261 279.318L111.866 265.615C114.343 262.93 115.321 259.216 114.481 255.683L109.991 236.803L112.751 220.997L97.0194 219.793V219.794Z" fill="#040C2B"/>
<path d="M99.815 174.292C99.815 174.292 95.9996 186.472 97.5539 190.37C99.1083 194.269 99.2502 194.338 99.2502 194.338C99.2502 194.338 105.327 195.66 105.539 195.799C105.751 195.938 113.241 189.465 113.241 189.465L111.262 177.353L104.832 173.246L99.815 174.29V174.292Z" fill="black"/>
<path d="M112.498 190.818L111.367 196.177L108.051 196.251L101.899 196.386L99.4258 193.533C99.8035 193.13 100.08 192.322 100.281 191.312C100.459 190.414 100.579 189.356 100.657 188.278C100.887 185.114 100.768 181.77 100.768 181.77L109.389 184.484C109.672 188.521 112.498 190.819 112.498 190.819V190.818Z" fill="#C9885B"/>
<path d="M100.064 175.788C100.064 175.788 96.3926 186.705 104.856 189.356C105.22 189.47 105.613 189.464 105.975 189.344C107.534 188.828 111.513 186.716 111.228 178.642C111.228 178.642 107.625 166.113 100.064 175.788Z" fill="#DB965F"/>
<path d="M116.389 192.099V203.909H115.965L115.514 191.812L116.389 192.099Z" fill="#262C84"/>
<path d="M121.824 216.228L118.739 217.791L117.161 218.591L116.877 218.734L116.916 217.968L116.975 216.799L117.115 213.986L117.554 205.265L117.69 202.551L120.481 201.75L121.504 212.787L121.708 214.977L121.824 216.228Z" fill="#DB965F"/>
<path d="M141.498 208.519C140.483 210.584 136.073 212.525 136.073 212.525L122.466 221.354C121.594 221.921 120.567 222.013 119.666 221.722C118.782 221.437 118.02 220.781 117.65 219.839L117.16 218.595L116.915 217.972L116.523 216.977L116.974 216.804L118.456 216.233L121.707 214.981L129.208 212.093C130.553 211.386 131.841 210.243 132.636 209.465C133.068 209.043 133.448 208.572 133.754 208.055C134.376 207.005 135.259 205.99 135.985 205.236C136.712 204.483 137.283 203.992 137.283 203.992C137.658 204.355 137.69 204.941 137.356 205.341L135.969 207.009L137.79 205.951C138.407 205.592 139.117 205.409 139.832 205.451C142.506 205.608 141.498 208.521 141.498 208.521V208.519Z" fill="#DB965F"/>
<path d="M124.805 211.609L121.094 212.623L117.695 213.552L116.705 213.822L116.397 213.907L116.002 213.946L116.347 204.535L116.8 192.199C120.625 193.631 121.131 197.619 121.131 197.619L124.806 211.609H124.805Z" fill="#2DA77D"/>
<path opacity="0.15" d="M118.739 217.79C118.633 217.253 118.539 216.732 118.456 216.227C118.309 215.34 118.193 214.502 118.105 213.714C117.53 208.614 117.619 207.491 117.619 207.491L117.336 205.89L116.841 202.41C116.862 204.236 117.164 209.73 117.108 213.987L117.115 213.985L117.106 214.16L116.974 216.798L116.523 216.971L116.915 217.966L116.877 218.732L117.161 218.588L117.651 219.832C117.796 220.2 117.999 220.525 118.248 220.799C118.634 221.23 119.128 221.541 119.667 221.715C119.288 220.333 118.983 219.022 118.74 217.788L118.739 217.79Z" fill="black"/>
<path d="M119.372 228.362C119.128 225.83 118.681 223.107 118.248 220.808C117.696 217.884 117.165 215.645 117.096 215.36C117.092 215.339 117.089 215.318 117.09 215.296C117.096 214.91 117.101 214.535 117.107 214.167C117.107 214.11 117.124 210.479 117.124 210.422C117.167 207.23 117.158 206.788 117.147 205.998C117.136 205.29 117.087 204.583 116.998 203.88L116.835 202.589L117.19 192.899L117.21 192.369C117.086 192.323 116.957 192.279 116.826 192.238C116.727 192.207 116.626 192.177 116.524 192.151L116.383 192.104L115.508 191.818L112.497 190.828C112.497 190.828 110.796 193.647 107.661 194.172C105.727 194.497 103.245 193.947 100.279 191.321C100.277 191.319 100.274 191.317 100.272 191.315L95.2492 193.012L94.2935 193.336L93.064 193.752C93.064 193.752 93.0203 193.776 92.9395 193.839C93.5439 195.193 94.4889 197.63 95.1238 200.8C95.5996 203.174 95.9015 205.959 95.758 209.009C95.4834 209.571 95.3729 209.943 95.3415 210.062C95.335 210.087 95.3325 210.113 95.3341 210.139C95.4125 211.761 95.4545 213.334 95.4685 214.836L95.4191 216.21L95.4727 216.205C95.4694 218.433 95.4059 220.486 95.3168 222.299C95.1799 225.055 94.5128 227.544 94.6538 228.867L119.372 228.361L119.372 228.362Z" fill="#2DA77D"/>
<path opacity="0.15" d="M96.283 216.118C96.1519 218.268 95.8566 220.39 95.3132 222.293C95.4031 220.48 95.4658 218.427 95.4691 216.199L95.4155 216.204L95.465 214.83C95.4509 213.316 95.4081 211.731 95.3289 210.095C95.3289 210.095 95.4188 209.689 95.7552 209.003C95.8995 205.953 95.5969 203.168 95.1211 200.794L95.1854 200.766C95.1854 200.766 95.822 203.978 96.1601 208.26C96.3506 210.669 96.4471 213.415 96.2821 216.118H96.283Z" fill="black"/>
<path d="M91.3698 200.012L90.4512 216.857L95.1853 217.9L95.3972 206.764L91.3698 200.012Z" fill="#DB965F"/>
<path d="M95.6111 210.935L95.4222 216.201L95.1872 216.224L84.9414 212.813L89.2517 201.119C90.8151 195.787 92.4817 194.186 92.9426 193.828C94.0946 196.41 96.4794 202.911 95.6111 210.934V210.935Z" fill="#2DA77D"/>
<path d="M102 224C102 224 94.225 225.296 90.7078 236.722C90.7078 236.722 89.0288 245.307 88.5789 247.337C81.1742 280.722 60.4206 297.138 26.1914 296.999C16.2922 296.959 6.49579 296.928 0 296.928" stroke="#868686" stroke-width="2" stroke-miterlimit="10"/>
<path d="M107.36 215.838L98.3105 220.574L101.773 226.995L110.823 222.259L107.36 215.838Z" fill="#263238"/>
<path opacity="0.1" d="M107.355 215.831L103.367 217.918L106.83 224.339L110.818 222.252L107.355 215.831Z" fill="black"/>
<path d="M117.65 204.434L119.81 208.438L147.148 194.129C147.71 193.835 148.097 193.346 148.269 192.79C148.441 192.234 148.399 191.616 148.101 191.063C147.505 189.957 146.112 189.537 144.989 190.125L117.65 204.434Z" fill="#A1A1A1"/>
<path d="M124.008 216.22L126.167 220.223L153.506 205.914C154.067 205.62 154.454 205.131 154.626 204.575C154.799 204.019 154.756 203.401 154.458 202.848C153.862 201.743 152.469 201.323 151.346 201.91L124.008 216.22Z" fill="#A2A2A2"/>
<path opacity="0.1" d="M139.497 193.011L117.641 204.449L119.8 208.453L141.656 197.015L139.497 193.011Z" fill="black"/>
<path opacity="0.1" d="M145.848 204.796L123.992 216.234L126.151 220.238L148.008 208.8L145.848 204.796Z" fill="black"/>
<path d="M102.447 213.61L109.935 227.492C111.119 229.687 113.885 230.521 116.114 229.354L132.248 220.91L120.472 199.078L104.338 207.523C102.11 208.689 101.263 211.415 102.447 213.61Z" fill="#37474F"/>
<path d="M111.003 201.76L124.694 227.143L142.095 218.034C143.666 217.212 144.262 215.291 143.427 213.744L132.759 193.966C131.924 192.418 129.974 191.831 128.403 192.653L111.002 201.761L111.003 201.76Z" fill="#37474F"/>
<path opacity="0.1" d="M111.192 203.939L122.969 225.771L123.736 225.369L124.693 227.144L129.514 224.62C129.481 224.542 129.444 224.465 129.402 224.389L115.955 199.46C115.914 199.384 115.87 199.31 115.823 199.238L111.002 201.762L111.959 203.537L111.192 203.938V203.939Z" fill="black"/>
<path d="M127.779 227.802L127.574 227.909C126.509 228.467 125.185 228.069 124.619 227.018L111.063 201.888C110.496 200.838 110.901 199.535 111.967 198.977L112.173 198.869C113.238 198.311 114.562 198.71 115.128 199.761L128.684 224.891C129.25 225.94 128.845 227.244 127.779 227.802Z" fill="#263238"/>
<path opacity="0.1" d="M117.126 224.94L118.123 224.418L109.608 208.629L108.611 209.151L117.126 224.94Z" fill="black"/>
<path opacity="0.1" d="M114.366 226.385L115.363 225.863L106.848 210.074L105.851 210.596L114.366 226.385Z" fill="black"/>
<path d="M116.704 219.974C114.871 221.389 110.044 221.223 110.044 221.223L93.8826 223.264C92.8468 223.395 91.8829 223.034 91.2042 222.382C90.5371 221.744 90.1454 220.825 90.2328 219.819L90.3474 218.49L90.4052 217.824L90.4975 216.76L90.9799 216.8L92.5648 216.928L96.0439 217.212L104.07 217.864C105.594 217.811 107.261 217.342 108.323 216.987C108.899 216.794 109.45 216.536 109.956 216.204C110.983 215.53 112.229 215 113.217 214.638C114.206 214.276 114.938 214.082 114.938 214.082C115.113 214.571 114.881 215.11 114.402 215.326L112.412 216.224L114.52 216.062C115.234 216.006 115.953 216.149 116.577 216.496C118.91 217.794 116.704 219.975 116.704 219.975V219.974Z" fill="#DB965F"/>
<path d="M102.287 175.753C102.287 175.753 105.679 180.625 110.625 179.442C110.625 179.442 111.756 182.017 109.071 187.725C109.071 187.725 107.657 191.066 108.718 195.799C108.718 195.799 115.855 192.946 114.794 185.637C114.794 185.637 113.523 167.47 103.56 170.742C103.56 170.742 98.5428 169.837 96.3526 179.234C96.3526 179.234 92.0423 192.389 100.451 195.8C100.451 195.8 98.6846 191.554 99.9916 183.862C99.9916 183.862 103.312 177.945 102.288 175.753H102.287Z" fill="black"/>
<path d="M101.218 183.618C101.367 184.421 101.058 185.15 100.529 185.244C100 185.338 99.4512 184.764 99.3028 183.961C99.1544 183.157 99.4636 182.429 99.9922 182.334C100.521 182.24 101.07 182.814 101.218 183.618Z" fill="#DB965F"/>
<path d="M114.584 186.469C114.584 186.469 114.725 191.898 112.535 194.334C112.535 194.334 115.149 192.246 114.584 186.469Z" fill="black"/>
<path d="M96.1604 182.352C96.1604 182.352 94.7099 191.322 97.7956 195.837C97.7956 195.837 93.929 191.807 96.1604 182.352Z" fill="black"/>
</svg>