<svg width="28" height="28" viewBox="0 0 28 28" fill="none" xmlns="http://www.w3.org/2000/svg">
<rect x="2" y="2" width="23.69" height="23.69" rx="11.845" fill="#676A6D"/>
<g clip-path="url(#clip0_2529_8796)">
<path d="M12.5868 17.4436C12.3903 17.4436 12.206 17.4436 12.0216 17.4436C11.3894 17.4425 10.9491 16.9831 10.9432 16.3166C10.941 16.0613 10.9402 15.8056 10.9442 15.5503C10.9453 15.4756 10.9262 15.4376 10.8557 15.4121C10.6622 15.3417 10.4714 15.2626 10.28 15.1851C9.99389 15.0693 9.9153 14.7867 10.0975 14.5257C10.3508 14.1631 10.6075 13.803 10.8576 13.4378C10.8888 13.3924 10.906 13.3198 10.899 13.2642C10.6086 11.002 11.9915 9.43544 13.6787 9.07794C15.1797 8.75987 16.7071 9.43431 17.5016 10.7551C18.0746 11.7076 18.1314 12.7217 17.7834 13.7741C17.6069 14.3078 17.3654 14.8103 17.1157 15.3085C16.8751 15.7886 16.7906 16.2931 16.8568 16.8313C16.8947 17.1406 16.9162 17.4524 16.9375 17.7637C16.9682 18.2157 16.6444 18.6246 16.2189 18.679C16.1624 18.6864 16.105 18.6915 16.048 18.6915C15.19 18.6924 14.3319 18.6929 13.4739 18.6915C13.0449 18.691 12.7211 18.4455 12.6197 18.0426C12.5992 17.9615 12.5922 17.8752 12.5882 17.7907C12.583 17.6811 12.5868 17.571 12.5868 17.4439V17.4436ZM15.7027 12.186C15.7043 11.3061 15.0433 10.6779 14.2816 10.7588C13.6429 10.8269 13.1316 11.4188 13.1321 12.0892C13.1321 12.3625 13.3418 12.5506 13.5921 12.5026C13.7729 12.468 13.886 12.3145 13.8989 12.0864C13.9158 11.7859 14.1376 11.5626 14.4197 11.5626C14.6966 11.5626 14.9216 11.7851 14.9359 12.0779C14.9464 12.2955 14.849 12.4541 14.6886 12.5835C14.2843 12.9095 14.0523 13.3354 14.0386 13.8796C14.0324 14.1219 14.1793 14.2939 14.3963 14.3086C14.6008 14.3225 14.7787 14.1529 14.8019 13.921C14.8075 13.8649 14.8078 13.8076 14.8183 13.7522C14.8654 13.5042 15.0156 13.3337 15.1988 13.1845C15.5315 12.9135 15.6954 12.5517 15.7032 12.1857L15.7027 12.186ZM14.037 15.5213C14.037 15.7409 14.2167 15.9291 14.4226 15.9257C14.6269 15.9222 14.7997 15.7387 14.8016 15.523C14.8035 15.2994 14.6323 15.1181 14.4191 15.1184C14.203 15.1184 14.0367 15.2938 14.037 15.521V15.5213Z" fill="white"/>
</g>
<defs>
<clipPath id="clip0_2529_8796">
<rect width="8" height="9.69218" fill="white" transform="translate(10 9)"/>
</clipPath>
</defs>
</svg>
