<svg width="24" height="24" viewBox="0 0 24 24" fill="none" xmlns="http://www.w3.org/2000/svg">
<path fill-rule="evenodd" clip-rule="evenodd" d="M12.0009 0.154297C9.65793 0.154123 7.36751 0.848736 5.41931 2.1503C3.47111 3.45185 1.95262 5.3019 1.05588 7.46648C0.159131 9.63105 -0.0755975 12.0129 0.381376 14.3109C0.83835 16.6089 1.9665 18.7198 3.62316 20.3766C5.27983 22.0334 7.39059 23.1617 9.68853 23.6189C11.9865 24.0761 14.3684 23.8416 16.533 22.945C18.6977 22.0484 20.5479 20.5301 21.8496 18.582C23.1513 16.6339 23.8461 14.3436 23.8462 12.0006C23.8446 8.85945 22.5961 5.84738 20.3751 3.62614C18.154 1.4049 15.1421 0.156176 12.0009 0.154297ZM7.03609 13.24L9.51852 15.7227C9.64052 15.8452 9.78551 15.9424 9.94518 16.0087C10.1048 16.0751 10.276 16.1092 10.4489 16.1092C10.6218 16.1092 10.793 16.0751 10.9527 16.0087C11.1124 15.9424 11.2574 15.8452 11.3793 15.7227L16.9657 10.1396C17.2125 9.89282 17.3511 9.55812 17.3511 9.20912C17.3511 8.86012 17.2125 8.52541 16.9657 8.27862C16.719 8.03183 16.3843 7.89318 16.0353 7.89317C15.6863 7.89316 15.3516 8.03179 15.1048 8.27856L10.4507 12.933L8.89698 11.379C8.6502 11.1322 8.31549 10.9936 7.96649 10.9936C7.61749 10.9936 7.28279 11.1323 7.03602 11.3791C6.78926 11.6259 6.65063 11.9606 6.65064 12.3096C6.65066 12.6586 6.78931 12.9933 7.03609 13.24Z" fill="#56A3CE"/>
</svg>
