<svg width="28" height="28" viewBox="0 0 28 28" fill="none" xmlns="http://www.w3.org/2000/svg">
<g clip-path="url(#clip0_2529_8620)">
<g clip-path="url(#clip1_2529_8620)">
<path d="M11.0833 10.8798V17.1215C11.0833 17.5687 11.2875 17.909 11.6958 18.1423C12.1041 18.3757 12.5028 18.3562 12.8916 18.084L17.7333 14.9923C18.1028 14.759 18.2875 14.4284 18.2875 14.0007C18.2875 13.5729 18.1028 13.2423 17.7333 13.009L12.8916 9.91732C12.5028 9.6451 12.1041 9.62565 11.6958 9.85898C11.2875 10.0923 11.0833 10.4326 11.0833 10.8798ZM14 25.6673C12.3861 25.6673 10.8694 25.3609 9.44998 24.748C8.03054 24.1359 6.79581 23.3048 5.74581 22.2548C4.69581 21.2048 3.86476 19.9701 3.25265 18.5506C2.63976 17.1312 2.33331 15.6145 2.33331 14.0007C2.33331 12.3868 2.63976 10.8701 3.25265 9.45065C3.86476 8.03121 4.69581 6.79648 5.74581 5.74648C6.79581 4.69648 8.03054 3.86504 9.44998 3.25215C10.8694 2.64004 12.3861 2.33398 14 2.33398C15.6139 2.33398 17.1305 2.64004 18.55 3.25215C19.9694 3.86504 21.2041 4.69648 22.2541 5.74648C23.3041 6.79648 24.1352 8.03121 24.7473 9.45065C25.3602 10.8701 25.6666 12.3868 25.6666 14.0007C25.6666 15.6145 25.3602 17.1312 24.7473 18.5506C24.1352 19.9701 23.3041 21.2048 22.2541 22.2548C21.2041 23.3048 19.9694 24.1359 18.55 24.748C17.1305 25.3609 15.6139 25.6673 14 25.6673Z" fill="#2DA77D"/>
<rect x="2" y="2" width="23.69" height="23.69" rx="11.845" fill="#6086BF"/>
<path d="M18.3183 14.3492C18.4155 14.3492 18.5277 14.3506 18.6403 14.3489C18.8476 14.3454 18.9979 14.2009 19 14.0047C19.002 13.8017 18.8522 13.6546 18.6388 13.6514C18.5265 13.6497 18.414 13.6514 18.2933 13.6514C18.191 12.6033 17.7841 11.6993 17.042 10.957C16.2998 10.2151 15.3954 9.80975 14.3488 9.70654C14.3488 9.58471 14.3503 9.47219 14.3485 9.35997C14.3453 9.1515 14.2017 9.00206 14.0048 9.00002C13.803 8.99799 13.6544 9.14859 13.6512 9.36142C13.6494 9.47365 13.6509 9.58617 13.6509 9.68299C11.373 10.0534 10.0589 11.3652 9.68226 13.6514C9.59298 13.6514 9.48189 13.6505 9.3711 13.6514C9.15532 13.6534 9.00206 13.7959 9.00003 13.9951C8.9977 14.2006 9.15066 14.3469 9.37226 14.3489C9.48102 14.3501 9.58978 14.3489 9.68284 14.3489C10.0554 16.6243 11.3669 17.939 13.6512 18.3176C13.6512 18.4069 13.6503 18.5179 13.6512 18.629C13.6532 18.845 13.7957 18.9979 13.9952 19C14.1999 19.002 14.3468 18.8479 14.3488 18.6275C14.3497 18.5188 14.3488 18.4101 14.3488 18.3159C16.6276 17.9478 17.94 16.6342 18.3183 14.3489V14.3492ZM10.4192 13.6514C10.566 11.8217 12.1602 10.4945 13.6509 10.4288C13.6509 10.5264 13.6497 10.6241 13.6509 10.7218C13.6535 10.9347 13.8007 11.0911 13.9984 11.0925C14.1941 11.0937 14.3456 10.9352 14.3485 10.7244C14.35 10.6236 14.3485 10.5227 14.3485 10.4212C16.0166 10.5404 17.4599 11.968 17.5782 13.6514C17.4767 13.6514 17.3758 13.6502 17.2749 13.6514C17.0638 13.6543 16.9059 13.8055 16.9076 14.002C16.9091 14.1995 17.0655 14.3463 17.2787 14.3489C17.379 14.3501 17.4794 14.3489 17.5803 14.3489C17.4357 16.1713 15.8587 17.4986 14.3485 17.573C14.3485 17.4715 14.35 17.3703 14.3482 17.2692C14.3448 17.0636 14.1973 16.9104 14.0031 16.9081C13.8065 16.9054 13.6541 17.063 13.6509 17.2738C13.6494 17.3747 13.6509 17.4759 13.6509 17.5774C11.9854 17.4672 10.5366 16.0251 10.4218 14.3489C10.4689 14.3489 10.5151 14.3489 10.5617 14.3489C10.9246 14.3489 11.0941 14.2364 11.0918 13.9971C11.0895 13.7593 10.9252 13.6508 10.5678 13.6508C10.5209 13.6508 10.4744 13.6508 10.4192 13.6508V13.6514Z" fill="white"/>
<path d="M14.0591 15.998C15.1786 15.9471 16.0461 15.0244 15.9981 13.936C15.9489 12.8238 15.0247 11.9549 13.9409 12.0018C12.8232 12.0503 11.9505 12.9781 12.0022 14.0636C12.0551 15.1795 12.9778 16.0472 14.0593 15.998H14.0591Z" fill="white"/>
</g>
</g>
<defs>
<clipPath id="clip0_2529_8620">
<rect width="28" height="28" fill="white"/>
</clipPath>
<clipPath id="clip1_2529_8620">
<rect width="28" height="28" fill="white"/>
</clipPath>
</defs>
</svg>
