<svg width="28" height="28" viewBox="0 0 28 28" fill="none" xmlns="http://www.w3.org/2000/svg">
<rect x="2" y="2" width="23.69" height="23.69" rx="11.845" fill="#FBAF1D"/>
<g clip-path="url(#clip0_2529_8795)">
<path d="M10.4286 8C10.3286 8 10.2429 8.01375 10.1571 8.04125C9.6 8.15125 9.15714 8.5775 9.04286 9.11375C9 9.19625 9 9.27875 9 9.375V16.9375C9 18.0787 9.95714 19 11.1429 19H19V17.625H11.1429C10.7429 17.625 10.4286 17.3225 10.4286 16.9375C10.4286 16.5525 10.7429 16.25 11.1429 16.25H19V8.6875C19 8.3025 18.6857 8 18.2857 8H17.5714V12.125L16.1429 10.75L14.7143 12.125V8H10.4286Z" fill="white"/>
</g>
<defs>
<clipPath id="clip0_2529_8795">
<rect width="10" height="11" fill="white" transform="translate(9 8)"/>
</clipPath>
</defs>
</svg>
