<svg width="24" height="24" viewBox="0 0 24 24" fill="none" xmlns="http://www.w3.org/2000/svg">
<path d="M9.08337 8.87982V15.1215C9.08337 15.5687 9.28754 15.909 9.69587 16.1423C10.1042 16.3757 10.5028 16.3562 10.8917 16.084L15.7334 12.9923C16.1028 12.759 16.2875 12.4284 16.2875 12.0007C16.2875 11.5729 16.1028 11.2423 15.7334 11.009L10.8917 7.91732C10.5028 7.6451 10.1042 7.62565 9.69587 7.85898C9.28754 8.09232 9.08337 8.4326 9.08337 8.87982ZM12 23.6673C10.3862 23.6673 8.86948 23.3609 7.45004 22.748C6.0306 22.1359 4.79587 21.3048 3.74587 20.2548C2.69587 19.2048 1.86482 17.9701 1.25271 16.5506C0.639819 15.1312 0.333374 13.6145 0.333374 12.0007C0.333374 10.3868 0.639819 8.8701 1.25271 7.45065C1.86482 6.03121 2.69587 4.79648 3.74587 3.74648C4.79587 2.69648 6.0306 1.86504 7.45004 1.25215C8.86948 0.64004 10.3862 0.333984 12 0.333984C13.6139 0.333984 15.1306 0.64004 16.55 1.25215C17.9695 1.86504 19.2042 2.69648 20.2542 3.74648C21.3042 4.79648 22.1353 6.03121 22.7474 7.45065C23.3603 8.8701 23.6667 10.3868 23.6667 12.0007C23.6667 13.6145 23.3603 15.1312 22.7474 16.5506C22.1353 17.9701 21.3042 19.2048 20.2542 20.2548C19.2042 21.3048 17.9695 22.1359 16.55 22.748C15.1306 23.3609 13.6139 23.6673 12 23.6673Z" fill="#2DA77D"/>
</svg>
