<svg width="24" height="24" viewBox="0 0 24 24" fill="none" xmlns="http://www.w3.org/2000/svg">
<path d="M12 0.425781C9.62663 0.425781 7.30655 1.1079 5.33316 2.38589C3.35977 3.66388 1.8217 5.48033 0.913451 7.60555C0.00519941 9.73077 -0.232441 12.0693 0.230582 14.3254C0.693605 16.5815 1.83649 18.6539 3.51472 20.2805C5.19295 21.9071 7.33115 23.0148 9.65892 23.4635C11.9867 23.9123 14.3995 23.682 16.5922 22.8017C18.7849 21.9214 20.6591 20.4307 21.9776 18.518C23.2962 16.6054 24 14.3567 24 12.0564C23.9969 8.97267 22.7317 6.0161 20.4819 3.83558C18.2321 1.65506 15.1817 0.428742 12 0.425781ZM12 19.2137C11.7262 19.2137 11.4585 19.135 11.2308 18.9875C11.0031 18.8401 10.8256 18.6305 10.7208 18.3853C10.616 18.14 10.5886 17.8702 10.642 17.6099C10.6954 17.3496 10.8273 17.1105 11.0209 16.9228C11.2146 16.7351 11.4613 16.6073 11.7299 16.5555C11.9985 16.5037 12.2769 16.5303 12.5299 16.6319C12.7829 16.7334 12.9991 16.9054 13.1513 17.1261C13.3034 17.3468 13.3846 17.6063 13.3846 17.8717C13.3846 18.2276 13.2387 18.569 12.9791 18.8206C12.7194 19.0723 12.3672 19.2137 12 19.2137ZM12.9231 13.7451V13.8457C12.9231 14.083 12.8258 14.3106 12.6527 14.4783C12.4796 14.6461 12.2448 14.7404 12 14.7404C11.7552 14.7404 11.5204 14.6461 11.3473 14.4783C11.1742 14.3106 11.0769 14.083 11.0769 13.8457V12.9511C11.0769 12.7138 11.1742 12.4862 11.3473 12.3184C11.5204 12.1507 11.7552 12.0564 12 12.0564C12.4564 12.0564 12.9026 11.9252 13.2821 11.6795C13.6616 11.4337 13.9574 11.0844 14.132 10.6757C14.3067 10.267 14.3524 9.81726 14.2634 9.38339C14.1743 8.94952 13.9545 8.55099 13.6318 8.23818C13.3091 7.92538 12.8979 7.71236 12.4502 7.62606C12.0026 7.53976 11.5386 7.58405 11.1169 7.75334C10.6952 7.92262 10.3348 8.2093 10.0812 8.57712C9.82765 8.94493 9.69231 9.37737 9.69231 9.81974C9.69231 10.057 9.59506 10.2846 9.42195 10.4524C9.24884 10.6201 9.01405 10.7144 8.76923 10.7144C8.52442 10.7144 8.28963 10.6201 8.11652 10.4524C7.94341 10.2846 7.84616 10.057 7.84616 9.81974C7.84616 9.06185 8.06688 8.31936 8.48293 7.67766C8.89899 7.03596 9.49347 6.52111 10.198 6.19233C10.9026 5.86355 11.6885 5.7342 12.4656 5.81914C13.2426 5.90408 13.9791 6.19988 14.5904 6.6725C15.2017 7.14513 15.6629 7.77539 15.921 8.49079C16.1791 9.20619 16.2237 9.97768 16.0495 10.7165C15.8753 11.4554 15.4895 12.1316 14.9364 12.6673C14.3834 13.2031 13.6855 13.5767 12.9231 13.7451Z" fill="#E5214E"/>
</svg>
