<svg width="14" height="9" viewBox="0 0 14 9" fill="none" xmlns="http://www.w3.org/2000/svg">
<path d="M6.22222 9C6.00185 9 5.81726 8.928 5.66844 8.784C5.51911 8.6405 5.44444 8.4625 5.44444 8.25C5.44444 8.0375 5.51911 7.8595 5.66844 7.716C5.81726 7.572 6.00185 7.5 6.22222 7.5H7.77778C7.99815 7.5 8.183 7.572 8.33233 7.716C8.48115 7.8595 8.55556 8.0375 8.55556 8.25C8.55556 8.4625 8.48115 8.6405 8.33233 8.784C8.183 8.928 7.99815 9 7.77778 9H6.22222ZM0.777778 1.5C0.557407 1.5 0.372815 1.42825 0.224 1.28475C0.0746668 1.14075 0 0.9625 0 0.75C0 0.5375 0.0746668 0.35925 0.224 0.21525C0.372815 0.0717501 0.557407 0 0.777778 0H13.2222C13.4426 0 13.6272 0.0717501 13.776 0.21525C13.9253 0.35925 14 0.5375 14 0.75C14 0.9625 13.9253 1.14075 13.776 1.28475C13.6272 1.42825 13.4426 1.5 13.2222 1.5H0.777778ZM3.11111 5.25C2.89074 5.25 2.70589 5.178 2.55656 5.034C2.40774 4.8905 2.33333 4.7125 2.33333 4.5C2.33333 4.2875 2.40774 4.10925 2.55656 3.96525C2.70589 3.82175 2.89074 3.75 3.11111 3.75H10.8889C11.1093 3.75 11.2939 3.82175 11.4427 3.96525C11.592 4.10925 11.6667 4.2875 11.6667 4.5C11.6667 4.7125 11.592 4.8905 11.4427 5.034C11.2939 5.178 11.1093 5.25 10.8889 5.25H3.11111Z" fill="white"/>
</svg>