<svg width="18" height="15" viewBox="0 0 18 15" fill="none" xmlns="http://www.w3.org/2000/svg">
<path d="M16.3072 7.0457H2.45436C2.25578 7.0457 2.06642 7.13252 1.92759 7.28523C1.78891 7.43777 1.71172 7.64373 1.71172 7.85761C1.71172 8.07148 1.78891 8.27744 1.92759 8.42999C2.06642 8.5827 2.25578 8.66951 2.45436 8.66951H16.3072C16.5058 8.66951 16.6951 8.5827 16.8339 8.42999C16.9726 8.27744 17.0498 8.07148 17.0498 7.85761C17.0498 7.64373 16.9726 7.43777 16.8339 7.28523C16.6951 7.13252 16.5058 7.0457 16.3072 7.0457Z" fill="white" stroke="black" stroke-width="0.1"/>
<path d="M2.81495 7.85715L8.48633 2.24299L8.48634 2.24298C8.63523 2.09556 8.71905 1.89541 8.71905 1.68649C8.71905 1.47758 8.63523 1.27743 8.48634 1.13001C8.33749 0.982624 8.13581 0.9 7.92573 0.9C7.71564 0.9 7.51397 0.982624 7.36511 1.13001L1.13316 7.30057C1.05932 7.3735 1.00068 7.4602 0.960649 7.55572C0.920619 7.65123 0.9 7.75367 0.9 7.85715C0.9 7.96062 0.920619 8.06306 0.960649 8.15857C1.00068 8.25409 1.05932 8.34079 1.13316 8.41372L7.36511 14.5843C7.51397 14.7317 7.71564 14.8143 7.92573 14.8143C8.13581 14.8143 8.33749 14.7317 8.48634 14.5843C8.63523 14.4369 8.71905 14.2367 8.71905 14.0278C8.71905 13.8189 8.63523 13.6187 8.48634 13.4713L8.48633 13.4713L2.81495 7.85715Z" fill="white" stroke="black" stroke-width="0.2"/>
</svg>