<svg width="33" height="33" viewBox="0 0 33 33" fill="none" xmlns="http://www.w3.org/2000/svg">
<mask id="path-1-inside-1_119_5147" fill="white">
<path d="M33 16.5C33 19.7634 32.0323 22.9535 30.2192 25.6669C28.4062 28.3803 25.8293 30.4952 22.8143 31.744C19.7993 32.9929 16.4817 33.3196 13.281 32.683C10.0803 32.0463 7.1403 30.4748 4.83274 28.1673C2.52517 25.8597 0.953697 22.9197 0.317042 19.719C-0.319613 16.5183 0.00714284 13.2007 1.25599 10.1857C2.50484 7.17074 4.61968 4.59379 7.3331 2.78075C10.0465 0.967705 13.2366 -1.59502e-06 16.5 0V1.31657C13.497 1.31657 10.5614 2.20706 8.06455 3.87544C5.56764 5.54381 3.62154 7.91514 2.47235 10.6895C1.32315 13.464 1.02246 16.5168 1.60832 19.4621C2.19417 22.4074 3.64025 25.1129 5.76369 27.2363C7.88713 29.3597 10.5926 30.8058 13.5379 31.3917C16.4832 31.9775 19.536 31.6769 22.3104 30.5277C25.0849 29.3785 27.4562 27.4324 29.1246 24.9355C30.7929 22.4386 31.6834 19.503 31.6834 16.5H33Z"/>
</mask>
<path d="M33 16.5C33 19.7634 32.0323 22.9535 30.2192 25.6669C28.4062 28.3803 25.8293 30.4952 22.8143 31.744C19.7993 32.9929 16.4817 33.3196 13.281 32.683C10.0803 32.0463 7.1403 30.4748 4.83274 28.1673C2.52517 25.8597 0.953697 22.9197 0.317042 19.719C-0.319613 16.5183 0.00714284 13.2007 1.25599 10.1857C2.50484 7.17074 4.61968 4.59379 7.3331 2.78075C10.0465 0.967705 13.2366 -1.59502e-06 16.5 0V1.31657C13.497 1.31657 10.5614 2.20706 8.06455 3.87544C5.56764 5.54381 3.62154 7.91514 2.47235 10.6895C1.32315 13.464 1.02246 16.5168 1.60832 19.4621C2.19417 22.4074 3.64025 25.1129 5.76369 27.2363C7.88713 29.3597 10.5926 30.8058 13.5379 31.3917C16.4832 31.9775 19.536 31.6769 22.3104 30.5277C25.0849 29.3785 27.4562 27.4324 29.1246 24.9355C30.7929 22.4386 31.6834 19.503 31.6834 16.5H33Z" stroke="#2AA87D" stroke-width="2" mask="url(#path-1-inside-1_119_5147)"/>
</svg>
