<svg width="14" height="14" viewBox="0 0 11 9" fill="none" xmlns="http://www.w3.org/2000/svg">
<path d="M8.42969 3.62109V1.57031C8.42969 1.41491 8.36796 1.26588 8.25807 1.15599C8.14819 1.04611 7.99915 0.984375 7.84375 0.984375H0.8125C0.6571 0.984375 0.508064 1.04611 0.39818 1.15599C0.288295 1.26588 0.226563 1.41491 0.226562 1.57031V7.42969C0.226563 7.58509 0.288295 7.73412 0.39818 7.84401C0.508064 7.95389 0.6571 8.01562 0.8125 8.01562H7.84375C7.99915 8.01562 8.14819 7.95389 8.25807 7.84401C8.36796 7.73412 8.42969 7.58509 8.42969 7.42969V5.37891L10.7734 7.72266V1.27734L8.42969 3.62109Z" fill="white"/>
</svg>
