<svg width="14" height="15" viewBox="0 0 11 13" fill="none" xmlns="http://www.w3.org/2000/svg">
<path d="M1.46346 12.9778C1.1591 12.9778 0.898638 12.8695 0.68208 12.653C0.465153 12.4361 0.356689 12.1754 0.356689 11.8711V4.12366H1.46346V11.8711H7.5507V12.9778H1.46346ZM3.677 10.7643C3.37264 10.7643 3.11218 10.656 2.89562 10.4394C2.67869 10.2225 2.57023 9.96187 2.57023 9.65751V1.91012C2.57023 1.60575 2.67869 1.34511 2.89562 1.12818C3.11218 0.911624 3.37264 0.803345 3.677 0.803345H7.5507L10.871 4.12366V9.65751C10.871 9.96187 10.7627 10.2225 10.5462 10.4394C10.3292 10.656 10.0686 10.7643 9.76424 10.7643H3.677ZM6.99731 4.67704H9.76424L6.99731 1.91012V4.67704Z" fill="white"/>
</svg>
