<svg width="24" height="32" viewBox="0 0 24 32" fill="none" xmlns="http://www.w3.org/2000/svg">
<path d="M3.50651 31.0835C2.70443 31.0835 2.01804 30.7981 1.44734 30.2275C0.875677 29.6558 0.589844 28.9689 0.589844 28.1668V13.5835C0.589844 12.7814 0.875677 12.0945 1.44734 11.5229C2.01804 10.9522 2.70443 10.6668 3.50651 10.6668H4.96484V7.75016C4.96484 5.7328 5.67602 4.01294 7.09839 2.59058C8.51977 1.16919 10.2392 0.458496 12.2565 0.458496C14.2739 0.458496 15.9937 1.16919 17.4161 2.59058C18.8375 4.01294 19.5482 5.7328 19.5482 7.75016V10.6668H21.0065C21.8086 10.6668 22.4955 10.9522 23.0671 11.5229C23.6378 12.0945 23.9232 12.7814 23.9232 13.5835V28.1668C23.9232 28.9689 23.6378 29.6558 23.0671 30.2275C22.4955 30.7981 21.8086 31.0835 21.0065 31.0835H3.50651ZM12.2565 23.7918C13.0586 23.7918 13.7455 23.5065 14.3171 22.9358C14.8878 22.3641 15.1732 21.6772 15.1732 20.8752C15.1732 20.0731 14.8878 19.3862 14.3171 18.8145C13.7455 18.2438 13.0586 17.9585 12.2565 17.9585C11.4544 17.9585 10.768 18.2438 10.1973 18.8145C9.62568 19.3862 9.33984 20.0731 9.33984 20.8752C9.33984 21.6772 9.62568 22.3641 10.1973 22.9358C10.768 23.5065 11.4544 23.7918 12.2565 23.7918ZM7.88151 10.6668H16.6315V7.75016C16.6315 6.53489 16.2062 5.5019 15.3555 4.6512C14.5048 3.80051 13.4718 3.37516 12.2565 3.37516C11.0412 3.37516 10.0082 3.80051 9.15755 4.6512C8.30686 5.5019 7.88151 6.53489 7.88151 7.75016V10.6668Z" fill="#DADADA"/>
</svg>
