<svg width="18" height="17" viewBox="0 0 18 17" fill="none" xmlns="http://www.w3.org/2000/svg">
<path d="M6.42562 7.4375C6.28684 7.4375 6.15374 7.49347 6.05561 7.5931C5.95747 7.69273 5.90234 7.82785 5.90234 7.96875C5.90234 8.10965 5.95747 8.24477 6.05561 8.3444C6.15374 8.44403 6.28684 8.5 6.42562 8.5H11.6583C11.7971 8.5 11.9302 8.44403 12.0284 8.3444C12.1265 8.24477 12.1816 8.10965 12.1816 7.96875C12.1816 7.82785 12.1265 7.69273 12.0284 7.5931C11.9302 7.49347 11.7971 7.4375 11.6583 7.4375H6.42562ZM5.90234 10.0938C5.90234 9.95285 5.95747 9.81773 6.05561 9.7181C6.15374 9.61847 6.28684 9.5625 6.42562 9.5625H11.6583C11.7971 9.5625 11.9302 9.61847 12.0284 9.7181C12.1265 9.81773 12.1816 9.95285 12.1816 10.0938C12.1816 10.2346 12.1265 10.3698 12.0284 10.4694C11.9302 10.569 11.7971 10.625 11.6583 10.625H6.42562C6.28684 10.625 6.15374 10.569 6.05561 10.4694C5.95747 10.3698 5.90234 10.2346 5.90234 10.0938ZM5.90234 12.2188C5.90234 12.0779 5.95747 11.9427 6.05561 11.8431C6.15374 11.7435 6.28684 11.6875 6.42562 11.6875H8.51871C8.65749 11.6875 8.79059 11.7435 8.88872 11.8431C8.98685 11.9427 9.04198 12.0779 9.04198 12.2188C9.04198 12.3596 8.98685 12.4948 8.88872 12.5944C8.79059 12.694 8.65749 12.75 8.51871 12.75H6.42562C6.28684 12.75 6.15374 12.694 6.05561 12.5944C5.95747 12.4948 5.90234 12.3596 5.90234 12.2188Z" fill="#2DA77D"/>
<path d="M10.6128 0H4.85677C4.30164 0 3.76926 0.223883 3.37672 0.622398C2.98419 1.02091 2.76367 1.56141 2.76367 2.125V14.875C2.76367 15.4386 2.98419 15.9791 3.37672 16.3776C3.76926 16.7761 4.30164 17 4.85677 17H13.2291C13.7843 17 14.3166 16.7761 14.7092 16.3776C15.1017 15.9791 15.3222 15.4386 15.3222 14.875V4.78125L10.6128 0ZM10.6128 1.0625V3.1875C10.6128 3.61019 10.7782 4.01557 11.0726 4.31445C11.367 4.61334 11.7662 4.78125 12.1826 4.78125H14.2757V14.875C14.2757 15.1568 14.1654 15.427 13.9692 15.6263C13.7729 15.8256 13.5067 15.9375 13.2291 15.9375H4.85677C4.5792 15.9375 4.31301 15.8256 4.11674 15.6263C3.92048 15.427 3.81022 15.1568 3.81022 14.875V2.125C3.81022 1.84321 3.92048 1.57296 4.11674 1.3737C4.31301 1.17444 4.5792 1.0625 4.85677 1.0625H10.6128Z" fill="#2DA77D"/>
</svg>
