<svg width="20" height="18" viewBox="0 0 20 18" fill="none" xmlns="http://www.w3.org/2000/svg">
<path d="M10.0275 1.125C5.50603 1.125 1.83984 4.65117 1.83984 9C1.83984 13.3488 5.50603 16.875 10.0275 16.875C14.549 16.875 18.2152 13.3488 18.2152 9C18.2152 4.65117 14.549 1.125 10.0275 1.125ZM10.0275 15.5391C6.27362 15.5391 3.22883 12.6105 3.22883 9C3.22883 5.38945 6.27362 2.46094 10.0275 2.46094C13.7814 2.46094 16.8262 5.38945 16.8262 9C16.8262 12.6105 13.7814 15.5391 10.0275 15.5391Z" fill="#2DA77D"/>
<path d="M13.8173 8.77331L8.40575 4.99402C8.36235 4.96342 8.31096 4.94501 8.25732 4.94085C8.20368 4.93668 8.14989 4.94693 8.10195 4.97044C8.05401 4.99395 8.0138 5.0298 7.9858 5.07401C7.95779 5.11821 7.9431 5.16902 7.94336 5.22078V12.7794C7.94336 13.0096 8.21385 13.1397 8.40575 13.0061L13.8173 9.22683C13.8547 9.20094 13.8851 9.16687 13.9061 9.12745C13.9271 9.08802 13.938 9.04436 13.938 9.00007C13.938 8.95578 13.9271 8.91212 13.9061 8.8727C13.8851 8.83327 13.8547 8.79921 13.8173 8.77331ZM9.10938 11.1288V6.87136L12.156 9.00007L9.10938 11.1288Z" fill="#2DA77D"/>
</svg>
