<svg width="13" height="13" viewBox="0 0 13 13" fill="none" xmlns="http://www.w3.org/2000/svg">
<g clip-path="url(#clip0_5112_17383)">
<path d="M9.87738 13H3.1228C3.09132 12.9909 3.06051 12.9787 3.02835 12.9733C2.13765 12.8223 1.45108 12.0372 1.44905 11.137C1.44364 8.45918 1.44431 5.78098 1.44973 3.10311C1.45075 2.58954 1.65759 2.15147 2.02186 1.78923C2.04319 1.76824 2.07028 1.75301 2.10785 1.72559C2.10785 1.88098 2.10515 2.01605 2.10819 2.15113C2.13121 3.12579 2.95624 3.9735 3.93022 3.98163C5.64358 3.99551 7.35728 3.99449 9.07064 3.98163C9.96304 3.9752 10.7549 3.24767 10.868 2.36408C10.8944 2.15757 10.893 1.94733 10.9049 1.72626C10.9414 1.75809 10.9709 1.78043 10.9963 1.8065C11.3517 2.17077 11.5494 2.60715 11.5505 3.11598C11.5549 5.78538 11.5552 8.45512 11.5511 11.1245C11.5498 11.9611 10.9749 12.6987 10.1685 12.9259C10.072 12.953 9.97421 12.9757 9.87705 13.0004L9.87738 13ZM3.96137 9.8973C4.03145 9.9948 4.08663 10.0744 4.14486 10.1519C4.28806 10.3438 4.50845 10.3872 4.68856 10.2599C4.86798 10.1329 4.90048 9.90712 4.76541 9.71043C4.67908 9.58517 4.59275 9.45991 4.49897 9.34007C4.44447 9.27033 4.43431 9.21785 4.49525 9.14303C4.58869 9.02894 4.66994 8.9047 4.75457 8.7835C4.89879 8.57699 4.87374 8.35355 4.6933 8.2222C4.50879 8.0878 4.28366 8.13689 4.13301 8.3434C4.07749 8.41957 4.02095 8.49473 3.95866 8.57868C3.8896 8.48322 3.83408 8.40366 3.77619 8.32579C3.63468 8.13587 3.41022 8.09288 3.23114 8.21983C3.05272 8.34678 3.02124 8.57259 3.15767 8.76962C3.24908 8.90165 3.34116 9.03301 3.43866 9.16064C3.48199 9.21717 3.48403 9.25848 3.44035 9.31569C3.34048 9.44671 3.24535 9.58111 3.15192 9.71686C3.02158 9.90678 3.05543 10.1306 3.22944 10.2565C3.40481 10.3834 3.62587 10.3465 3.76637 10.1644C3.83002 10.0818 3.8896 9.99548 3.96137 9.89629V9.8973ZM3.9414 6.21059C3.88655 6.10428 3.84119 6.01017 3.79007 5.9191C3.68241 5.72749 3.46642 5.65944 3.27989 5.75491C3.09978 5.84733 3.01989 6.06298 3.10994 6.2529C3.24197 6.53118 3.37874 6.80743 3.52465 7.07861C3.65837 7.3271 3.96645 7.36129 4.15061 7.14598C4.4939 6.7448 4.83481 6.34126 5.16218 5.92723C5.22447 5.84835 5.24884 5.71496 5.24038 5.61069C5.22785 5.45631 5.11614 5.35577 4.9621 5.31853C4.80739 5.28129 4.67739 5.33241 4.5765 5.45124C4.3666 5.69871 4.15976 5.94889 3.9414 6.21025V6.21059ZM8.42944 6.6771C8.78863 6.6771 9.14783 6.67777 9.50702 6.6771C9.75416 6.67642 9.92546 6.52137 9.92783 6.29962C9.9302 6.0772 9.75957 5.91639 9.51413 5.91605C8.79168 5.9147 8.0689 5.91504 7.34645 5.91605C7.10168 5.91639 6.93038 6.0772 6.93207 6.29894C6.93377 6.51934 7.10642 6.67642 7.35186 6.6771C7.71106 6.67811 8.07025 6.6771 8.42944 6.6771ZM8.4203 9.65051C8.78796 9.65051 9.15561 9.65152 9.52293 9.65017C9.75957 9.64915 9.92749 9.49004 9.92749 9.27168C9.92749 9.05603 9.75788 8.89082 9.52293 8.8898C8.79608 8.88743 8.06957 8.88743 7.34272 8.8898C7.10101 8.89048 6.92835 9.05806 6.93207 9.27811C6.9358 9.49613 7.10337 9.64949 7.34306 9.65051C7.70225 9.65152 8.06145 9.65051 8.42064 9.65051H8.4203Z" fill="white"/>
<path d="M9.14247 0C9.27314 0.0460417 9.41194 0.076849 9.53246 0.14151C9.87541 0.326016 10.0911 0.620547 10.1185 1.00682C10.1473 1.41036 10.1574 1.82102 10.1164 2.22253C10.0548 2.82547 9.56903 3.22326 8.95661 3.22393C7.73887 3.22563 6.52114 3.22427 5.30306 3.22427C4.88429 3.22427 4.46585 3.22563 4.04708 3.22427C3.36593 3.22156 2.87369 2.72797 2.87064 2.04615C2.86929 1.74586 2.86793 1.44557 2.87098 1.14562C2.8764 0.599896 3.23458 0.154036 3.76439 0.0277604C3.79689 0.019974 3.82838 0.00914063 3.86054 0C5.62096 0 7.38171 0 9.14213 0L9.14247 0Z" fill="white"/>
</g>
<defs>
<clipPath id="clip0_5112_17383">
<rect width="13" height="13" fill="white"/>
</clipPath>
</defs>
</svg>
