<svg width="230" height="230" viewBox="0 0 204 204" fill="none" xmlns="http://www.w3.org/2000/svg">
<g clip-path="url(#clip0_3284_11577)">
<path d="M102 204C158.333 204 204 158.333 204 102C204 45.667 158.333 0 102 0C45.667 0 0 45.667 0 102C0 158.333 45.667 204 102 204Z" fill="url(#paint0_linear_3284_11577)"/>
<path d="M203.181 114.97C191.94 110.059 177.305 107.708 168.165 111.132C159.588 114.347 160.967 120.726 152.166 123.36C137.963 127.612 128.123 112.876 106.99 113.576C88.1851 114.198 81.6685 126.337 67.4617 123.36C58.6015 121.505 56.9249 115.901 50.617 111.948C40.0503 105.323 19.7629 105.394 0.257812 109.183C2.03506 134.706 13.1978 157.642 30.322 174.562C49.5849 178.123 70.543 180.027 90.9907 179.267C126.919 177.933 163.258 168.313 188.009 156.856C195.93 144.464 201.247 130.246 203.185 114.97H203.181Z" fill="url(#paint1_linear_3284_11577)"/>
<path d="M165.246 187.427C165.246 188.091 140.816 188.623 110.677 188.623C80.5381 188.623 56.1074 188.087 56.1074 187.427C56.1074 186.768 80.5381 186.231 110.677 186.231C140.816 186.231 165.246 186.768 165.246 187.427Z" fill="#D0DFF3"/>
<path d="M158.64 58.0008H133.975C132.533 58.0008 131.214 57.4792 130.193 56.611C128.934 55.538 128.133 53.9433 128.133 52.1586C128.133 50.5453 128.785 49.0847 129.843 48.0266C130.901 46.9684 132.362 46.3164 133.975 46.3164H158.64C160.254 46.3164 161.714 46.9684 162.772 48.0266C163.831 49.0847 164.483 50.5453 164.483 52.1586C164.483 53.7719 163.831 55.2325 162.772 56.2906C161.714 57.3488 160.254 58.0008 158.64 58.0008Z" fill="#D8E2F4"/>
<path d="M152.784 50.2522C153.917 45.4981 150.981 40.7259 146.227 39.5934C141.473 38.4608 136.701 41.3966 135.568 46.1507C134.436 50.9048 137.372 55.6769 142.126 56.8095C146.88 57.9421 151.652 55.0063 152.784 50.2522Z" fill="#D8E2F4"/>
<path d="M53.9443 43.8575H17.751C15.3851 43.8575 13.239 42.8962 11.689 41.3462C10.139 39.7963 9.17773 37.6502 9.17773 35.2842C9.17773 33.5964 9.66583 32.0203 10.5079 30.6939C12.028 28.2982 14.7032 26.7109 17.751 26.7109H53.948C56.314 26.7109 58.4601 27.6722 60.0101 29.2222C61.56 30.7722 62.5213 32.9183 62.5213 35.2842C62.5213 37.4937 61.6867 39.5056 60.3156 41.0258C58.747 42.7658 56.4742 43.8575 53.948 43.8575H53.9443Z" fill="white"/>
<path d="M32.7287 42.4715C39.902 42.4715 45.7171 36.6564 45.7171 29.4831C45.7171 22.3098 39.902 16.4946 32.7287 16.4946C25.5554 16.4946 19.7402 22.3098 19.7402 29.4831C19.7402 36.6564 25.5554 42.4715 32.7287 42.4715Z" fill="white"/>
<path d="M119.004 60.1396H77.0091C71.163 60.1396 66.4238 64.8788 66.4238 70.7249V176.782C66.4238 182.628 71.163 187.368 77.0091 187.368H119.004C124.85 187.368 129.589 182.628 129.589 176.782V70.7249C129.589 64.8788 124.85 60.1396 119.004 60.1396Z" fill="white"/>
<path d="M119.008 188.482H77.0097C70.5564 188.482 65.3066 183.232 65.3066 176.779V70.7211C65.3066 64.2678 70.5564 59.0181 77.0097 59.0181H119.008C125.461 59.0181 130.711 64.2678 130.711 70.7211V176.779C130.711 183.232 125.461 188.482 119.008 188.482ZM77.0097 61.2536C71.7897 61.2536 67.5422 65.5011 67.5422 70.7211V176.779C67.5422 181.999 71.7897 186.246 77.0097 186.246H119.008C124.228 186.246 128.475 181.999 128.475 176.779V70.7211C128.475 65.5011 124.228 61.2536 119.008 61.2536H77.0097Z" fill="#E0E9F3"/>
<path d="M118.487 181.622H77.5357C76.9172 181.622 76.418 181.123 76.418 180.504C76.418 179.886 76.9172 179.387 77.5357 179.387H118.487C119.106 179.387 119.605 179.886 119.605 180.504C119.605 181.123 119.106 181.622 118.487 181.622Z" fill="#E0E9F3"/>
<path d="M77.3936 68.7573C77.3936 69.9012 76.4658 70.8252 75.3257 70.8252C74.1856 70.8252 73.2578 69.8974 73.2578 68.7573C73.2578 67.6172 74.1856 66.6895 75.3257 66.6895C76.4658 66.6895 77.3936 67.6172 77.3936 68.7573Z" fill="#E0E9F3"/>
<path d="M88.244 105.491C90.6994 102.879 94.0676 101.571 98.3561 101.571C102.32 101.571 105.495 102.689 107.879 104.925C110.264 107.16 111.456 110.018 111.456 113.494C111.456 115.599 111.024 117.309 110.16 118.621C109.295 119.932 107.522 121.863 104.847 124.404C102.898 126.252 101.631 127.816 101.042 129.098C100.454 130.38 100.159 132.273 100.159 134.776H94.8538C94.8538 131.934 95.1928 129.642 95.8672 127.906C96.5416 126.166 98.0469 124.176 100.379 121.93L102.812 119.575C103.543 118.9 104.135 118.192 104.59 117.458C105.417 116.166 105.827 114.824 105.827 113.435C105.827 111.486 105.234 109.798 104.046 108.367C102.857 106.937 100.893 106.221 98.1549 106.221C94.7644 106.221 92.4208 107.454 91.1242 109.917C90.3939 111.288 89.9766 113.267 89.876 115.849H84.5703C84.5703 111.557 85.7961 108.103 88.2515 105.491H88.244ZM94.7271 139.732H100.659V145.932H94.7271V139.732Z" fill="#50C6A1"/>
<path d="M63.7231 187.427C63.7231 188.091 60.1053 188.623 55.6379 188.623C51.1706 188.623 47.5527 188.087 47.5527 187.427C47.5527 186.768 51.1706 186.231 55.6379 186.231C60.1053 186.231 63.7231 186.768 63.7231 187.427Z" fill="#D0DFF3"/>
<path d="M44.6919 151.338C44.4087 152.754 46.1077 153.037 46.3909 155.016C46.674 156.998 45.8245 157.561 46.1077 158.693C46.3909 159.826 48.0899 160.109 48.3693 162.937C48.6525 165.765 47.5198 165.482 47.803 167.181C48.0862 168.88 49.7852 168.88 50.0646 170.292C50.344 171.704 50.3478 173.686 50.9141 175.385C51.4804 177.084 53.1757 179.629 54.0252 179.629C54.8747 179.629 57.1363 174.819 56.57 173.407C56.0037 171.995 55.1542 171.708 55.1542 170.579C55.1542 169.45 56.2868 166.618 56.0037 164.636C55.7205 162.654 53.1757 161.808 52.8926 160.392C52.6094 158.976 53.4589 155.299 51.4767 153.604C49.4945 151.905 44.9713 149.926 44.6881 151.342L44.6919 151.338Z" fill="#3FB790"/>
<path d="M53.898 179.141C53.8198 179.141 53.7564 179.077 53.7564 178.999C53.7564 178.962 53.7303 175.284 52.6536 174.208C51.5619 173.116 50.9359 169.77 50.6304 163.365C50.3547 157.545 46.1817 152.75 46.1407 152.702C46.0885 152.642 46.096 152.553 46.1519 152.501C46.2115 152.448 46.3009 152.456 46.3531 152.512C46.3941 152.56 50.6341 157.426 50.9136 163.35C51.2116 169.595 51.8264 172.982 52.851 174.006C54.0098 175.165 54.0359 178.839 54.0359 178.995C54.0359 179.074 53.9725 179.137 53.8943 179.137L53.898 179.141Z" fill="#34916F"/>
<path d="M70.59 155.619C71.5885 156.618 68.3284 157.035 68.0452 159.014C67.7621 160.992 67.7621 161.842 66.6294 162.974C65.4967 164.107 63.8014 164.39 64.0846 166.086C64.3678 167.785 64.9341 169.48 64.0846 170.329C63.2351 171.179 61.2566 171.179 60.6903 172.591C60.124 174.003 60.4071 175.702 59.2745 177.118C58.1418 178.534 56.4465 181.362 55.0307 180.795C53.6148 180.229 54.4643 173.724 55.0307 172.591C55.597 171.458 56.1634 170.609 56.1634 169.763C56.1634 168.917 55.8802 167.501 56.4465 166.086C57.0129 164.67 60.124 164.103 60.4071 163.258C60.6903 162.412 60.9735 157.881 62.6688 156.752C64.3678 155.619 68.891 153.924 70.59 155.619Z" fill="#4FC7A0"/>
<path d="M55.4658 180.311C55.4397 180.311 55.4174 180.304 55.3913 180.292C55.3242 180.252 55.3019 180.166 55.3428 180.099C55.354 180.08 56.4867 178.184 56.7251 177.226C56.7885 176.98 56.863 176.604 56.9487 176.172C57.2617 174.599 57.7349 172.23 58.4614 171.499C59.5158 170.445 61.2037 167.211 62.3848 163.075C63.8416 157.978 68.6554 156.488 68.7039 156.473C68.7784 156.451 68.8566 156.491 68.879 156.57C68.9014 156.644 68.8604 156.723 68.7859 156.745C68.7374 156.76 64.0689 158.209 62.6568 163.153C61.4608 167.338 59.7431 170.62 58.6589 171.701C57.9919 172.368 57.5113 174.782 57.2244 176.228C57.1387 176.663 57.0642 177.04 57.0009 177.293C56.7512 178.292 55.6335 180.162 55.585 180.24C55.5589 180.285 55.5105 180.307 55.4621 180.307L55.4658 180.311Z" fill="#3FB690"/>
<path d="M55.1052 158.857C51.7109 159.14 52.8436 169.323 52.8436 169.323C53.6931 178.094 54.8257 182.055 55.6715 182.338C56.5173 182.621 58.2163 169.89 58.2163 166.779C58.2163 166.779 58.4995 158.574 55.1052 158.857Z" fill="#90DAD8"/>
<path d="M55.5297 180.926C55.5297 180.926 55.5185 180.926 55.5111 180.926C55.4328 180.914 55.3769 180.847 55.3881 180.769C56.5059 171.555 55.1198 159.982 55.1049 159.867C55.0938 159.789 55.1497 159.718 55.2279 159.71C55.3024 159.699 55.3769 159.755 55.3844 159.833C55.3993 159.949 56.789 171.555 55.6676 180.803C55.6601 180.873 55.5968 180.926 55.526 180.926H55.5297Z" fill="white"/>
<path d="M59.7481 187.364H51.1413C50.8544 187.364 50.6122 187.189 50.5787 186.958L49.3268 178.031C49.2709 177.628 49.5839 177.271 49.9863 177.271H60.8994C61.3055 177.271 61.6185 177.628 61.5626 178.031L60.3107 186.958C60.2772 187.189 60.035 187.364 59.7481 187.364Z" fill="#D0DAED"/>
<path d="M143.326 185.658H146.795V152.378H148.487V165.523H151.11V152.378H152.801V167.214H148.487V185.661H151.956C152.421 185.661 152.801 186.041 152.801 186.507C152.801 186.973 152.421 187.353 151.956 187.353H143.33C142.864 187.353 142.484 186.973 142.484 186.507C142.484 186.041 142.864 185.661 143.33 185.661L143.326 185.658Z" fill="#263238"/>
<path d="M149.583 145.157C156.949 145.157 162.922 146.547 162.922 148.257V149.934C162.922 151.648 156.949 153.034 149.583 153.034C142.217 153.034 136.244 151.644 136.244 149.934V148.257C136.244 146.543 142.217 145.157 149.583 145.157Z" fill="#263238"/>
<path opacity="0.1" d="M132.455 104.075C134.723 99.7825 133.082 94.4648 128.79 92.1971C124.498 89.9294 119.18 91.5705 116.913 95.8624C114.645 100.154 116.286 105.472 120.578 107.74C124.87 110.008 130.188 108.366 132.455 104.075Z" fill="white"/>
<path opacity="0.17" d="M130.213 97.2717C129.896 97.2717 129.602 97.0668 129.501 96.7501C129.188 95.7515 128.506 94.9318 127.579 94.4475C126.651 93.9594 125.589 93.8662 124.59 94.1792C124.199 94.3021 123.778 94.0823 123.655 93.6911C123.532 93.2999 123.752 92.8789 124.143 92.7559C125.522 92.3237 126.986 92.4578 128.268 93.1285C129.55 93.7991 130.492 94.9281 130.921 96.3104C131.044 96.7016 130.824 97.1226 130.433 97.2456C130.358 97.268 130.284 97.2791 130.209 97.2791L130.213 97.2717Z" fill="#50C6A1"/>
<path d="M121.545 89.9203C115.997 91.6528 112.905 97.5546 114.638 103.102C116.37 108.65 122.272 111.743 127.82 110.01C133.368 108.278 136.46 102.376 134.728 96.8281C132.995 91.2802 127.093 88.1877 121.545 89.9203ZM127.302 108.352C122.667 109.798 117.737 107.216 116.292 102.585C114.846 97.9495 117.428 93.0202 122.06 91.5746C126.695 90.1289 131.624 92.711 133.07 97.3422C134.515 101.977 131.933 106.907 127.302 108.352Z" fill="#D0DAED"/>
<path d="M128.592 109.403L126.846 109.949L129.332 117.908L131.078 117.362L128.592 109.403Z" fill="#D0DAED"/>
<path d="M134.672 131.933C133.558 132.284 132.369 131.661 132.019 130.544L128.196 118.304C128.01 117.712 128.342 117.082 128.934 116.896L130.831 116.303C131.423 116.117 132.053 116.449 132.239 117.041L136.062 129.281C136.412 130.395 135.79 131.583 134.672 131.933Z" fill="#455A64"/>
<path d="M135.411 126.557C135.411 126.557 131.473 124.128 130.284 122.872C129.095 121.617 128.592 121.047 128.898 120.779C129.204 120.51 132.531 121.975 132.851 121.729C133.172 121.483 132.892 120.868 133.254 120.592C133.615 120.316 135.761 122.526 136.268 122.358C136.778 122.191 136.003 126.166 135.411 126.557Z" fill="#FFAA9D"/>
<path d="M119.701 171.786L116.814 174.58L109.496 167.81L111.903 163.895L119.701 171.786Z" fill="#FFAA9D"/>
<path d="M117.235 174.17C117.235 174.17 115.22 176.693 114.843 176.7C114.467 176.707 106.017 167.564 106.073 167.27C106.128 166.975 109.817 167.292 109.817 167.292L117.239 174.17H117.235Z" fill="url(#paint2_linear_3284_11577)"/>
<path d="M111.457 163.485C111.457 163.485 119.915 172.326 120.243 172.326C120.571 172.326 160.937 141.33 160.937 141.33L143.824 133.741C143.824 133.741 122.094 139.713 111.457 163.485Z" fill="#38464E"/>
<path d="M149.777 166.137L151.208 169.889L142.102 173.95L139.449 170.195L149.777 166.137Z" fill="#FFAA9D"/>
<path d="M142.494 133.741C142.494 133.741 128.205 136.721 126.968 141.558C125.731 146.394 126.856 151.681 130.795 157.87C134.733 164.058 138.738 170.787 139.562 171.007C139.562 171.007 150.14 166.771 150.382 166.242C150.62 165.713 144.458 151.152 144.458 151.152C144.458 151.152 157.018 150.317 159.946 142.91L142.494 133.741Z" fill="#263238"/>
<path d="M141.491 133.699C141.361 134.542 156.968 144.315 159.729 143.845C162.49 143.372 166.063 131.971 165.076 123.457C164.089 114.943 156.462 108.557 152.985 108.855C149.509 109.153 147.646 112.413 147.173 117.596C146.48 125.201 141.636 132.757 141.491 133.696V133.699Z" fill="#B35042"/>
<path d="M154.547 110.163C156.388 110.003 162.718 113.714 164.197 124.668C165.677 135.618 159.629 136.539 154.547 135.831C149.465 135.123 136.678 128.848 134.804 126.605C134.804 126.605 134.401 123.077 135.758 121.829C135.758 121.829 148.094 123.085 151.295 124.046C154.495 125.007 147.569 110.774 154.544 110.167L154.547 110.163Z" fill="#FF725E"/>
<path d="M150.996 169.338C150.996 169.338 152.524 172.184 152.379 172.535C152.233 172.885 140.504 177.05 140.258 176.887C140.012 176.723 141.752 173.455 141.752 173.455L151 169.342L150.996 169.338Z" fill="url(#paint3_linear_3284_11577)"/>
<path d="M144.21 103.05L144.15 106.966L144.735 106.948C144.735 106.948 145.205 110.185 147.493 109.675C148.148 109.53 148.987 108.971 149.229 109.083C149.516 109.213 149.639 110.1 149.706 110.357C149.955 111.337 153.387 110.346 152.832 109.343C152.303 108.389 151.516 107.085 151.684 106.724C152.265 105.461 152.429 102.327 149.277 101.28C146.766 100.446 144.244 101.709 144.214 103.05H144.21Z" fill="#FFAA9D"/>
<path d="M152.832 109.343C152.303 108.39 151.517 107.086 151.685 106.724C151.685 106.724 150.358 108.762 149.136 109.071C149.136 109.071 149.133 109.071 149.129 109.071C149.17 109.071 149.203 109.071 149.23 109.083C149.516 109.213 149.639 110.1 149.706 110.357C149.956 111.337 153.388 110.346 152.832 109.343Z" fill="#FF9F91"/>
<path d="M149.505 104.973C150.98 104.72 150.064 108.006 151.688 107.898C153.313 107.79 154.445 104.239 153.253 101.501C152.061 98.762 149.796 98.9148 147.635 99.2873C145.474 99.6599 142.824 100.636 142.828 102.272C142.832 106.203 147.485 102.905 147.791 104.086C148.029 104.999 148.395 107.645 147.448 107.704C146.502 107.764 145.537 106.985 144.788 107.183C144.356 107.298 143.171 112.455 146.271 112.626C149.337 112.797 150.116 110.089 149.468 107.879C148.853 105.778 148.79 105.096 149.509 104.973H149.505Z" fill="#263238"/>
</g>
<defs>
<linearGradient id="paint0_linear_3284_11577" x1="102" y1="183.731" x2="102" y2="-20.2651" gradientUnits="userSpaceOnUse">
<stop stop-color="#FEFEFD"/>
<stop offset="1" stop-color="#EBF3FF"/>
</linearGradient>
<linearGradient id="paint1_linear_3284_11577" x1="101.718" y1="175.832" x2="101.718" y2="117.499" gradientUnits="userSpaceOnUse">
<stop stop-color="#FEFEFD"/>
<stop offset="0.84" stop-color="#EBF3FF"/>
</linearGradient>
<linearGradient id="paint2_linear_3284_11577" x1="112.433" y1="169.693" x2="110.619" y2="171.958" gradientUnits="userSpaceOnUse">
<stop stop-color="#14336D"/>
<stop offset="0.97" stop-color="#0E2253"/>
</linearGradient>
<linearGradient id="paint3_linear_3284_11577" x1="145.02" y1="171.98" x2="146.387" y2="174.539" gradientUnits="userSpaceOnUse">
<stop stop-color="#14336D"/>
<stop offset="0.97" stop-color="#0E2253"/>
</linearGradient>
<clipPath id="clip0_3284_11577">
<rect width="204" height="204" fill="white"/>
</clipPath>
</defs>
</svg>
